<?xml version="1.0" encoding="UTF-8"?>
<!DOCTYPE svg PUBLIC "-//W3C//DTD SVG 1.1//EN" "http://www.w3.org/Graphics/SVG/1.1/DTD/svg11.dtd">
<svg xmlns="http://www.w3.org/2000/svg" version="1.1" width="2432px" height="2652px" style="shape-rendering:geometricPrecision; text-rendering:geometricPrecision; image-rendering:optimizeQuality; fill-rule:evenodd; clip-rule:evenodd" xmlns:xlink="http://www.w3.org/1999/xlink">
<g><path style="opacity:0.996" fill="#030000" d="M 1168.5,-0.5 C 1198.5,-0.5 1228.5,-0.5 1258.5,-0.5C 1511.38,14.9897 1730.38,108.156 1915.5,279C 2094.01,452.867 2197.84,664.367 2227,913.5C 2251.17,1186.59 2180.5,1431.59 2015,1648.5C 1914.88,1775.45 1791.71,1873.11 1645.5,1941.5C 1643.95,1945.3 1643.28,1949.3 1643.5,1953.5C 1644.31,1962.16 1644.48,1970.83 1644,1979.5C 1642.77,1984.41 1640.27,1988.57 1636.5,1992C 1606.92,2006.12 1577.59,2020.79 1548.5,2036C 1520.5,2052 1492.5,2068 1464.5,2084C 1453.08,2090.32 1441.41,2090.98 1429.5,2086C 1422.5,2080.16 1419.16,2072.66 1419.5,2063.5C 1420.47,2049.13 1421.81,2034.8 1423.5,2020.5C 1423.17,2019.5 1422.83,2018.5 1422.5,2017.5C 1355.24,2044.02 1285.74,2062.02 1214,2071.5C 1143.31,2062.2 1074.81,2044.53 1008.5,2018.5C 1008.17,2020.17 1007.83,2021.83 1007.5,2023.5C 1008.94,2036.13 1009.94,2048.8 1010.5,2061.5C 1010.89,2082.65 1000.56,2091.82 979.5,2089C 972.152,2086.83 965.152,2083.83 958.5,2080C 904.694,2047.76 849.361,2018.09 792.5,1991C 789.836,1988.33 788.002,1985.16 787,1981.5C 786.5,1968.84 786.333,1956.17 786.5,1943.5C 618.968,1866.61 482.135,1752.61 376,1601.5C 218.896,1368.35 163.562,1112.68 210,834.5C 259.29,583.942 382.457,378.775 579.5,219C 752.553,85.0176 948.886,11.8509 1168.5,-0.5 Z"/></g>
<g><path style="opacity:1" fill="#d6d6d6" d="M 1164.5,42.5 C 1409.19,34.6825 1627.86,105.183 1820.5,254C 2015.83,412.699 2134.99,616.865 2178,866.5C 2212.47,1106.18 2166.8,1329.18 2041,1535.5C 2029.68,1496.38 2017.51,1457.55 2004.5,1419C 2042.35,1421.82 2069.85,1406.32 2087,1372.5C 2097.16,1351.39 2099.83,1329.39 2095,1306.5C 2081.29,1269.15 2054.45,1251.31 2014.5,1253C 1995.17,1256.83 1979.5,1266.5 1967.5,1282C 1964.83,1281.85 1962.16,1281.35 1959.5,1280.5C 1964.06,1265.65 1969.9,1251.31 1977,1237.5C 1981.44,1232.69 1986.77,1231.36 1993,1233.5C 1995.5,1232.67 1996,1231.17 1994.5,1229C 1983,1224.5 1971.5,1220 1960,1215.5C 1954.77,1226.16 1950.11,1237.16 1946,1248.5C 1941.67,1236.83 1937.33,1225.17 1933,1213.5C 1932.33,1210.5 1932.33,1207.5 1933,1204.5C 1983.43,997.878 1953.43,803.878 1843,622.5C 1810.84,571.949 1773.18,525.615 1730,483.5C 1729.33,473.167 1729.33,462.833 1730,452.5C 1732.39,455.597 1735.22,457.763 1738.5,459C 1745.96,449.869 1753.8,441.036 1762,432.5C 1761.64,427.751 1760.64,423.085 1759,418.5C 1756.98,406.892 1759.31,396.225 1766,386.5C 1777.94,365.551 1795.11,350.718 1817.5,342C 1851.08,334.873 1872.91,347.706 1883,380.5C 1884.98,397.948 1880.65,413.615 1870,427.5C 1857.83,445.01 1841.66,457.176 1821.5,464C 1814.83,464.667 1808.17,464.667 1801.5,464C 1798.26,462.361 1794.92,461.361 1791.5,461C 1781.99,469.009 1772.66,477.176 1763.5,485.5C 1780.46,501.959 1797.29,518.625 1814,535.5C 1823.35,526.319 1832.51,516.986 1841.5,507.5C 1840.83,506.167 1839.83,505.167 1838.5,504.5C 1832.65,509.7 1826.32,510.533 1819.5,507C 1809.03,497.53 1798.86,487.697 1789,477.5C 1788.33,476.833 1788.33,476.167 1789,475.5C 1790.84,473.913 1792.84,472.579 1795,471.5C 1834.74,489.232 1867.41,480.566 1893,445.5C 1907.33,419.342 1906.99,393.342 1892,367.5C 1876.18,341.688 1853.35,326.188 1823.5,321C 1787.28,318.566 1761.45,333.733 1746,366.5C 1738.93,387.972 1740.77,408.639 1751.5,428.5C 1750.59,431.082 1748.92,433.082 1746.5,434.5C 1740.51,429.015 1734.68,423.348 1729,417.5C 1729.26,387.646 1724.59,358.646 1715,330.5C 1699.26,293.868 1671.42,277.702 1631.5,282C 1607.1,286.786 1584.26,295.619 1563,308.5C 1554.96,305.563 1547.13,302.229 1539.5,298.5C 1540.64,296.201 1541.97,294.034 1543.5,292C 1588.7,293.117 1615.87,271.617 1625,227.5C 1627.4,198.475 1616.9,175.308 1593.5,158C 1567.08,139.714 1538.41,134.714 1507.5,143C 1483.58,152.924 1468.08,170.424 1461,195.5C 1455.82,224.641 1464.49,248.641 1487,267.5C 1487.37,270.776 1486.54,273.776 1484.5,276.5C 1470.57,270.865 1456.9,264.698 1443.5,258C 1438.52,252.701 1437.18,246.534 1439.5,239.5C 1437.8,239.034 1436.3,239.034 1435,239.5C 1430.26,251.207 1425.43,262.874 1420.5,274.5C 1442.02,284.091 1463.69,293.425 1485.5,302.5C 1490.51,290.969 1494.85,279.135 1498.5,267C 1496.07,262.896 1493.23,259.063 1490,255.5C 1484.85,245.065 1483.18,234.065 1485,222.5C 1488.27,200.137 1497.77,180.97 1513.5,165C 1538.4,145.034 1562.57,145.868 1586,167.5C 1597.2,181.617 1601.2,197.617 1598,215.5C 1593.92,237.168 1584.42,256.002 1569.5,272C 1559.83,279.085 1548.99,282.919 1537,283.5C 1531.37,293.937 1525.87,304.437 1520.5,315C 1520.64,315.772 1520.98,316.439 1521.5,317C 1527.18,319.505 1532.84,322.005 1538.5,324.5C 1531.52,329.642 1524.69,334.976 1518,340.5C 1371.26,275.381 1219.09,258.547 1061.5,290C 1009.08,301.197 958.411,317.697 909.5,339.5C 902.5,334.167 895.5,328.833 888.5,323.5C 893.491,321.338 898.491,319.172 903.5,317C 904.022,316.439 904.355,315.772 904.5,315C 899.197,304.227 894.03,293.394 889,282.5C 874.011,282.615 861.678,276.948 852,265.5C 834.479,243.936 826.813,219.269 829,191.5C 835.199,166.395 851.199,152.729 877,150.5C 895.256,151.795 910.256,159.461 922,173.5C 936.765,193.795 943.432,216.462 942,241.5C 939.609,251.454 934.776,259.954 927.5,267C 931.017,279.052 935.017,290.885 939.5,302.5C 960.914,294.029 982.247,285.362 1003.5,276.5C 1004.58,275.635 1004.75,274.635 1004,273.5C 999.56,261.818 994.56,250.485 989,239.5C 988.228,239.645 987.561,239.978 987,240.5C 986.667,244.833 986.333,249.167 986,253.5C 984.878,255.624 983.378,257.457 981.5,259C 967.842,265.662 953.842,271.496 939.5,276.5C 939.123,273.475 938.956,270.475 939,267.5C 962.13,248.45 970.797,224.117 965,194.5C 953.941,157.619 929.108,138.619 890.5,137.5C 861.164,139.752 836.664,151.752 817,173.5C 795.254,206.759 796.587,239.092 821,270.5C 838.546,286.96 859.379,293.96 883.5,291.5C 884.167,294.167 884.833,296.833 885.5,299.5C 878.12,301.961 870.787,304.627 863.5,307.5C 842.115,294.759 819.115,286.259 794.5,282C 756.324,278.67 729.49,294.503 714,329.5C 709.988,339.202 706.988,349.202 705,359.5C 702.195,378.414 700.195,397.414 699,416.5C 692.636,423.199 685.969,429.532 679,435.5C 677.267,433.277 675.767,430.944 674.5,428.5C 692.211,392.141 685.878,360.641 655.5,334C 638.234,321.21 618.901,316.543 597.5,320C 565.506,328.653 542.672,348.153 529,378.5C 516.582,416.913 526.749,447.746 559.5,471C 583.411,483.713 607.245,483.547 631,470.5C 633.613,472.401 635.28,474.735 636,477.5C 626.47,487.364 616.637,496.864 606.5,506C 599.471,510.887 592.804,510.387 586.5,504.5C 585.167,505.167 584.167,506.167 583.5,507.5C 592.486,516.986 601.652,526.319 611,535.5C 628.319,519.348 645.152,502.681 661.5,485.5C 652.541,477.343 643.541,469.176 634.5,461C 627.664,462.584 620.664,463.75 613.5,464.5C 598.688,462.094 585.688,455.927 574.5,446C 560.664,434.173 550.83,419.673 545,402.5C 539.108,371.439 550.941,350.606 580.5,340C 596.977,337.287 612.31,340.287 626.5,349C 645.19,361.688 658.69,378.521 667,399.5C 668.471,405.431 668.804,411.431 668,417.5C 666.224,422.148 664.89,426.815 664,431.5C 671.761,441.351 679.761,451.018 688,460.5C 691.333,457.167 694.667,453.833 698,450.5C 698.667,460.833 698.667,471.167 698,481.5C 558.18,619.187 482.18,786.52 470,983.5C 466.348,1062.38 474.848,1139.88 495.5,1216C 491.865,1228.74 487.531,1241.24 482.5,1253.5C 477.571,1241.22 472.738,1228.88 468,1216.5C 467.586,1216.04 467.086,1215.71 466.5,1215.5C 454.304,1220.12 442.304,1225.12 430.5,1230.5C 430.833,1231.17 431.167,1231.83 431.5,1232.5C 435.796,1233.33 440.129,1233.83 444.5,1234C 446.624,1235.12 448.457,1236.62 450,1238.5C 456.078,1251.73 461.578,1265.23 466.5,1279C 466.167,1279.5 465.833,1280 465.5,1280.5C 462.897,1281.56 460.23,1281.73 457.5,1281C 440.407,1259.41 418.073,1250.07 390.5,1253C 345.458,1263.72 324.625,1292.22 328,1338.5C 332.482,1367.25 346.315,1390.08 369.5,1407C 387.291,1417.53 406.291,1421.03 426.5,1417.5C 412.546,1458.52 399.713,1499.86 388,1541.5C 260.789,1336.09 213.789,1113.43 247,873.5C 286.673,632.907 397.84,433.073 580.5,274C 749.37,133.456 944.036,56.2888 1164.5,42.5 Z"/></g>
<g><path style="opacity:1" fill="#040202" d="M 1242.5,225.5 C 1241.57,226.568 1241.23,227.901 1241.5,229.5C 1255.01,229.829 1268.34,229.496 1281.5,228.5C 1291.34,228.328 1296.67,223.328 1297.5,213.5C 1298.83,213.5 1300.17,213.5 1301.5,213.5C 1301.5,226.5 1301.5,239.5 1301.5,252.5C 1277.83,252.5 1254.17,252.5 1230.5,252.5C 1231.24,239.8 1232.41,227.134 1234,214.5C 1251.25,207.576 1261.58,194.909 1265,176.5C 1268.27,160.823 1268.27,145.156 1265,129.5C 1257.48,101.468 1239.31,86.4678 1210.5,84.5C 1203.42,84.8052 1196.75,86.6386 1190.5,90C 1168.92,104.666 1158.58,125.166 1159.5,151.5C 1159.55,168.148 1163.39,183.815 1171,198.5C 1174.17,201.667 1177.33,204.833 1180.5,208C 1184.28,210.307 1188.12,212.474 1192,214.5C 1192.6,222.165 1193.1,229.832 1193.5,237.5C 1193.5,242.167 1193.5,246.833 1193.5,251.5C 1170.17,251.5 1146.83,251.5 1123.5,251.5C 1123.5,238.5 1123.5,225.5 1123.5,212.5C 1124.83,212.5 1126.17,212.5 1127.5,212.5C 1128.04,220.871 1132.37,226.037 1140.5,228C 1154.83,228.5 1169.16,228.667 1183.5,228.5C 1183.78,225.552 1183.44,222.719 1182.5,220C 1144.69,207.148 1127.19,180.648 1130,140.5C 1138.55,103.95 1161.39,82.4502 1198.5,76C 1229.72,71.3701 1256.56,79.8701 1279,101.5C 1297.69,125.103 1301.69,151.103 1291,179.5C 1281.62,200.539 1265.79,214.039 1243.5,220C 1242.59,221.699 1242.26,223.533 1242.5,225.5 Z"/></g>
<g><path style="opacity:1" fill="#515050" d="M 1242.5,225.5 C 1242.5,226.5 1242.5,227.5 1242.5,228.5C 1255.5,228.5 1268.5,228.5 1281.5,228.5C 1268.34,229.496 1255.01,229.829 1241.5,229.5C 1241.23,227.901 1241.57,226.568 1242.5,225.5 Z"/></g>
<g><path style="opacity:1" fill="#504f4f" d="M 1297.5,213.5 C 1298.92,212.549 1300.59,212.216 1302.5,212.5C 1302.83,226.01 1302.5,239.344 1301.5,252.5C 1301.5,239.5 1301.5,226.5 1301.5,213.5C 1300.17,213.5 1298.83,213.5 1297.5,213.5 Z"/></g>
<g><path style="opacity:1" fill="#464545" d="M 1123.5,212.5 C 1123.5,225.5 1123.5,238.5 1123.5,251.5C 1146.83,251.5 1170.17,251.5 1193.5,251.5C 1193.5,246.833 1193.5,242.167 1193.5,237.5C 1194.49,242.305 1194.82,247.305 1194.5,252.5C 1170.5,252.5 1146.5,252.5 1122.5,252.5C 1122.17,238.99 1122.5,225.656 1123.5,212.5 Z"/></g>
<g><path style="opacity:1" fill="#675245" d="M 1178.5,316.5 C 1284.71,312.394 1386.71,330.894 1484.5,372C 1461.36,394.468 1439.69,418.134 1419.5,443C 1415.18,443.047 1411.02,442.214 1407,440.5C 1406.67,437.5 1406.33,434.5 1406,431.5C 1388.9,400.73 1364.4,377.896 1332.5,363C 1294.18,346.669 1254.18,339.502 1212.5,341.5C 1166.59,338.756 1123.25,347.923 1082.5,369C 1056,383.5 1035.5,404 1021,430.5C 1020.5,434.152 1020.33,437.818 1020.5,441.5C 1016.73,441.867 1013.07,442.367 1009.5,443C 988.237,418.4 966.237,394.4 943.5,371C 1018.79,339.428 1097.12,321.261 1178.5,316.5 Z"/></g>
<g><path style="opacity:1" fill="#fa851d" d="M 1235.5,879.5 C 1236.66,916.331 1236.83,953.331 1236,990.5C 1231.54,1011.65 1230.38,1032.98 1232.5,1054.5C 1230.5,1054.5 1228.5,1054.5 1226.5,1054.5C 1208.09,1054.15 1189.75,1055.15 1171.5,1057.5C 1139.78,1031.36 1115.28,999.697 1098,962.5C 1084.42,941.923 1066.25,926.757 1043.5,917C 999.303,898.856 953.97,895.523 907.5,907C 873.6,919.231 849.767,942.065 836,975.5C 825.273,1003.52 818.94,1032.52 817,1062.5C 816.333,1077.17 816.333,1091.83 817,1106.5C 821.019,1143.28 828.685,1179.28 840,1214.5C 846.017,1233.58 852.184,1252.58 858.5,1271.5C 833.069,1242.35 812.902,1209.68 798,1173.5C 777.471,1121.38 764.471,1067.38 759,1011.5C 751.407,936.894 753.407,862.561 765,788.5C 771.815,759.539 784.481,733.539 803,710.5C 818.659,691.175 835.992,673.508 855,657.5C 858.878,648.91 858.045,640.91 852.5,633.5C 866.864,619.135 881.53,605.135 896.5,591.5C 895.755,594.93 897.089,596.597 900.5,596.5C 907.145,595.01 913.145,592.177 918.5,588C 936.541,572.29 954.874,556.957 973.5,542C 981.984,534.722 980.317,531.389 968.5,532C 956.479,531.195 944.479,530.195 932.5,529C 927.597,528.11 922.93,526.61 918.5,524.5C 892.639,505.132 872.139,481.132 857,452.5C 849.984,438.469 842.984,424.469 836,410.5C 825.532,394.033 812.365,380.2 796.5,369C 784.272,361.239 771.272,359.239 757.5,363C 752.267,365.779 747.6,369.279 743.5,373.5C 744.865,358.569 749.699,344.902 758,332.5C 767.705,322.157 779.539,318.657 793.5,322C 814.256,327.045 833.589,335.378 851.5,347C 867.686,357.516 883.019,369.182 897.5,382C 942.505,425.987 984.171,472.653 1022.5,522C 1036.85,527.778 1047.01,523.612 1053,509.5C 1053.77,505.406 1053.43,501.406 1052,497.5C 1047.69,491.028 1043.19,484.694 1038.5,478.5C 1043.57,476.053 1048.9,475.22 1054.5,476C 1077,497.16 1094.84,521.66 1108,549.5C 1110.05,556.074 1111.71,562.74 1113,569.5C 1118.01,625.394 1123.51,681.227 1129.5,737C 1129.17,738.167 1128.83,739.333 1128.5,740.5C 1119.1,749.616 1109.6,758.616 1100,767.5C 1096.67,774.167 1096.67,780.833 1100,787.5C 1134.17,821.667 1168.33,855.833 1202.5,890C 1209.82,894.663 1217.15,894.663 1224.5,890C 1228.04,886.296 1231.7,882.796 1235.5,879.5 Z"/></g>
<g><path style="opacity:1" fill="#d47018" d="M 1685.5,378.5 C 1674.08,361.75 1658.74,356.917 1639.5,364C 1620.91,373.589 1605.74,387.089 1594,404.5C 1583.75,423.342 1573.75,442.342 1564,461.5C 1548.84,486.489 1529.67,507.823 1506.5,525.5C 1502.47,527.337 1498.13,528.504 1493.5,529C 1480.86,530.309 1468.19,531.309 1455.5,532C 1453.78,532.346 1452.12,532.846 1450.5,533.5C 1449.39,534.723 1449.22,536.056 1450,537.5C 1469.79,553.625 1489.29,570.125 1508.5,587C 1513.54,590.521 1518.87,593.521 1524.5,596C 1527.5,596.891 1530.16,596.391 1532.5,594.5C 1546.83,607.496 1560.83,620.829 1574.5,634.5C 1569.92,641.522 1569.42,648.855 1573,656.5C 1590.98,672.811 1607.98,690.145 1624,708.5C 1644.01,732.847 1657.34,760.513 1664,791.5C 1677.82,885.721 1676.48,979.721 1660,1073.5C 1650.71,1121.36 1635.05,1167.03 1613,1210.5C 1601.3,1232.35 1587.13,1252.35 1570.5,1270.5C 1583.59,1232.73 1594.76,1194.4 1604,1155.5C 1617.09,1097.77 1614.43,1040.77 1596,984.5C 1587.72,960.417 1573.89,940.25 1554.5,924C 1533.42,909.753 1510.09,902.086 1484.5,901C 1438.21,896.646 1395.88,907.313 1357.5,933C 1345.49,942.336 1335.66,953.503 1328,966.5C 1317.4,990.707 1303.07,1012.37 1285,1031.5C 1275.94,1040.73 1266.77,1049.73 1257.5,1058.5C 1247.03,1057.15 1236.7,1055.81 1226.5,1054.5C 1228.5,1054.5 1230.5,1054.5 1232.5,1054.5C 1230.38,1032.98 1231.54,1011.65 1236,990.5C 1236.83,953.331 1236.66,916.331 1235.5,879.5C 1265.47,849.035 1295.63,818.701 1326,788.5C 1330.6,781.138 1330.6,773.804 1326,766.5C 1316.67,757.833 1307.33,749.167 1298,740.5C 1297.83,738.667 1297.67,736.833 1297.5,735C 1302.23,689.856 1306.73,644.689 1311,599.5C 1315.91,594.018 1317.57,587.685 1316,580.5C 1313.12,574.37 1312.78,568.036 1315,561.5C 1318.3,549.902 1322.97,538.902 1329,528.5C 1341.61,509.809 1355.78,492.309 1371.5,476C 1377.58,475.519 1383.58,476.019 1389.5,477.5C 1389.65,478.552 1389.48,479.552 1389,480.5C 1384.51,485.476 1380.51,490.809 1377,496.5C 1373.25,508.922 1377.08,518.088 1388.5,524C 1395.21,525.248 1401.55,524.248 1407.5,521C 1443.52,474.294 1482.52,429.961 1524.5,388C 1551.46,362.181 1582.12,341.847 1616.5,327C 1654.73,312.223 1677.23,325.057 1684,365.5C 1684.92,369.79 1685.42,374.123 1685.5,378.5 Z"/></g>
<g><path style="opacity:1" fill="#fdfdfd" d="M 918.5,524.5 C 902.015,516.192 887.015,505.692 873.5,493C 853.136,473.986 835.803,452.652 821.5,429C 813.142,424.354 806.642,426.188 802,434.5C 795.874,445.002 792.541,456.336 792,468.5C 790.849,499.62 792.182,530.62 796,561.5C 796.729,565.602 798.562,569.102 801.5,572C 803.167,572.667 804.833,572.667 806.5,572C 812.167,567 817.833,562 823.5,557C 834.019,549.243 845.852,545.743 859,546.5C 873.519,546.191 887.353,549.024 900.5,555C 906.692,560.293 908.192,566.793 905,574.5C 901.607,579.952 898.774,585.619 896.5,591.5C 881.53,605.135 866.864,619.135 852.5,633.5C 844.975,627.101 836.642,625.934 827.5,630C 807.167,646.333 788.833,664.667 772.5,685C 771.517,685.591 770.85,685.257 770.5,684C 756.339,637.511 747.172,590.011 743,541.5C 739.071,498.912 737.737,456.246 739,413.5C 739.647,400.021 741.147,386.687 743.5,373.5C 747.6,369.279 752.267,365.779 757.5,363C 771.272,359.239 784.272,361.239 796.5,369C 812.365,380.2 825.532,394.033 836,410.5C 842.984,424.469 849.984,438.469 857,452.5C 872.139,481.132 892.639,505.132 918.5,524.5 Z"/></g>
<g><path style="opacity:1" fill="#d7d0cb" d="M 1685.5,378.5 C 1693.49,466.867 1688.32,554.534 1670,641.5C 1666.44,656.737 1662.11,671.737 1657,686.5C 1640.5,664.667 1621.33,645.5 1599.5,629C 1589.92,625.633 1581.58,627.466 1574.5,634.5C 1560.83,620.829 1546.83,607.496 1532.5,594.5C 1532.66,592.801 1532.49,591.134 1532,589.5C 1527.61,583.391 1524.28,576.724 1522,569.5C 1520.89,562.603 1523.39,557.436 1529.5,554C 1541.25,548.75 1553.59,546.25 1566.5,546.5C 1580.03,545.245 1592.36,548.411 1603.5,556C 1609.5,561.333 1615.5,566.667 1621.5,572C 1624.35,572.944 1626.85,572.444 1629,570.5C 1632.19,563.884 1633.86,556.884 1634,549.5C 1636.4,520.212 1637.07,490.879 1636,461.5C 1634.45,448.579 1629.29,437.413 1620.5,428C 1613.15,424.822 1607.32,426.655 1603,433.5C 1581.55,469.584 1553.05,498.75 1517.5,521C 1514.03,523.072 1510.36,524.572 1506.5,525.5C 1529.67,507.823 1548.84,486.489 1564,461.5C 1573.75,442.342 1583.75,423.342 1594,404.5C 1605.74,387.089 1620.91,373.589 1639.5,364C 1658.74,356.917 1674.08,361.75 1685.5,378.5 Z"/></g>
<g><path style="opacity:1" fill="#bf6d0f" d="M 1254.5,395.5 C 1256.86,395.663 1259.19,395.497 1261.5,395C 1255.87,394.034 1250.2,393.367 1244.5,393C 1224.66,392.171 1205,392.338 1185.5,393.5C 1152.79,395.707 1120.46,400.207 1088.5,407C 1115.72,389.038 1145.72,379.038 1178.5,377C 1209.26,375.673 1239.92,376.673 1270.5,380C 1297.39,384.514 1321.73,394.847 1343.5,411C 1314.07,404.095 1284.4,398.929 1254.5,395.5 Z"/></g>
<g><path style="opacity:1" fill="#d48115" d="M 1185.5,393.5 C 1205,392.338 1224.66,392.171 1244.5,393C 1250.2,393.367 1255.87,394.034 1261.5,395C 1259.19,395.497 1256.86,395.663 1254.5,395.5C 1231.52,394.112 1208.52,393.445 1185.5,393.5 Z"/></g>
<g><path style="opacity:1" fill="#030101" d="M 918.5,524.5 C 922.93,526.61 927.597,528.11 932.5,529C 944.479,530.195 956.479,531.195 968.5,532C 980.317,531.389 981.984,534.722 973.5,542C 954.874,556.957 936.541,572.29 918.5,588C 913.145,592.177 907.145,595.01 900.5,596.5C 897.089,596.597 895.755,594.93 896.5,591.5C 898.774,585.619 901.607,579.952 905,574.5C 908.192,566.793 906.692,560.293 900.5,555C 887.353,549.024 873.519,546.191 859,546.5C 845.852,545.743 834.019,549.243 823.5,557C 817.833,562 812.167,567 806.5,572C 804.833,572.667 803.167,572.667 801.5,572C 798.562,569.102 796.729,565.602 796,561.5C 792.182,530.62 790.849,499.62 792,468.5C 792.541,456.336 795.874,445.002 802,434.5C 806.642,426.188 813.142,424.354 821.5,429C 835.803,452.652 853.136,473.986 873.5,493C 887.015,505.692 902.015,516.192 918.5,524.5 Z"/></g>
<g><path style="opacity:1" fill="#030101" d="M 1532.5,594.5 C 1530.16,596.391 1527.5,596.891 1524.5,596C 1518.87,593.521 1513.54,590.521 1508.5,587C 1489.29,570.125 1469.79,553.625 1450,537.5C 1449.22,536.056 1449.39,534.723 1450.5,533.5C 1452.12,532.846 1453.78,532.346 1455.5,532C 1468.19,531.309 1480.86,530.309 1493.5,529C 1498.13,528.504 1502.47,527.337 1506.5,525.5C 1510.36,524.572 1514.03,523.072 1517.5,521C 1553.05,498.75 1581.55,469.584 1603,433.5C 1607.32,426.655 1613.15,424.822 1620.5,428C 1629.29,437.413 1634.45,448.579 1636,461.5C 1637.07,490.879 1636.4,520.212 1634,549.5C 1633.86,556.884 1632.19,563.884 1629,570.5C 1626.85,572.444 1624.35,572.944 1621.5,572C 1615.5,566.667 1609.5,561.333 1603.5,556C 1592.36,548.411 1580.03,545.245 1566.5,546.5C 1553.59,546.25 1541.25,548.75 1529.5,554C 1523.39,557.436 1520.89,562.603 1522,569.5C 1524.28,576.724 1527.61,583.391 1532,589.5C 1532.49,591.134 1532.66,592.801 1532.5,594.5 Z"/></g>
<g><path style="opacity:1" fill="#e78d16" d="M 1324.5,443.5 C 1323.63,449.901 1321.13,455.568 1317,460.5C 1310.93,466.73 1305.43,473.396 1300.5,480.5C 1298.95,481.452 1297.29,481.785 1295.5,481.5C 1239.17,470.833 1182.83,470.833 1126.5,481.5C 1120.49,472.835 1113.99,464.501 1107,456.5C 1103.44,451.727 1101.94,446.394 1102.5,440.5C 1172.73,424.765 1243.07,424.598 1313.5,440C 1317.43,440.724 1321.09,441.891 1324.5,443.5 Z"/></g>
<g><path style="opacity:1" fill="#bf6e0f" d="M 1102.5,440.5 C 1101.94,446.394 1103.44,451.727 1107,456.5C 1113.99,464.501 1120.49,472.835 1126.5,481.5C 1121.05,483.442 1115.39,484.609 1109.5,485C 1099.24,472.071 1088.24,459.738 1076.5,448C 1084.86,444.576 1093.53,442.076 1102.5,440.5 Z"/></g>
<g><path style="opacity:1" fill="#bf6e0f" d="M 1324.5,443.5 C 1332.85,444.468 1340.85,446.635 1348.5,450C 1337.09,461.405 1326.42,473.405 1316.5,486C 1309.27,485.274 1302.27,483.774 1295.5,481.5C 1297.29,481.785 1298.95,481.452 1300.5,480.5C 1305.43,473.396 1310.93,466.73 1317,460.5C 1321.13,455.568 1323.63,449.901 1324.5,443.5 Z"/></g>
<g><path style="opacity:1" fill="#e78d16" d="M 1278.5,514.5 C 1271.22,528.712 1266.56,543.712 1264.5,559.5C 1262.83,559.5 1261.17,559.5 1259.5,559.5C 1227.79,556.541 1196.12,556.874 1164.5,560.5C 1160.28,544.533 1154.62,528.866 1147.5,513.5C 1191.26,506.555 1234.93,506.888 1278.5,514.5 Z"/></g>
<g><path style="opacity:1" fill="#c06e0f" d="M 1147.5,513.5 C 1154.62,528.866 1160.28,544.533 1164.5,560.5C 1158.72,562.043 1152.72,563.043 1146.5,563.5C 1144.96,547.078 1139.96,531.745 1131.5,517.5C 1136.56,515.318 1141.9,513.985 1147.5,513.5 Z"/></g>
<g><path style="opacity:1" fill="#bf6e0f" d="M 1278.5,514.5 C 1284.32,514.964 1289.99,516.131 1295.5,518C 1287.29,531.782 1281.96,546.615 1279.5,562.5C 1272.61,562.127 1265.94,561.127 1259.5,559.5C 1261.17,559.5 1262.83,559.5 1264.5,559.5C 1266.56,543.712 1271.22,528.712 1278.5,514.5 Z"/></g>
<g><path style="opacity:1" fill="#675245" d="M 701.5,537.5 C 705.943,574.411 711.943,611.245 719.5,648C 651.062,812.31 585.562,977.81 523,1144.5C 489.869,946.718 531.202,766.385 647,603.5C 664.246,580.752 682.413,558.752 701.5,537.5 Z"/></g>
<g><path style="opacity:1" fill="#675245" d="M 1725.5,539.5 C 1818.81,640.116 1878.31,758.449 1904,894.5C 1914.76,957.798 1917.43,1021.47 1912,1085.5C 1909.78,1102.51 1907.44,1119.51 1905,1136.5C 1842.85,972.529 1778.18,809.529 1711,647.5C 1710.33,645.167 1710.33,642.833 1711,640.5C 1717.47,607.049 1722.3,573.382 1725.5,539.5 Z"/></g>
<g><path style="opacity:1" fill="#e88e16" d="M 1260.5,595.5 C 1259.12,611.344 1257.46,627.011 1255.5,642.5C 1240.71,640.868 1225.88,639.868 1211,639.5C 1197.78,639.794 1184.61,640.794 1171.5,642.5C 1169.12,627.401 1167.45,612.068 1166.5,596.5C 1182.51,593.101 1198.85,591.768 1215.5,592.5C 1230.62,592.057 1245.62,593.057 1260.5,595.5 Z"/></g>
<g><path style="opacity:1" fill="#050303" d="M 409.5,593.5 C 438.653,592.831 462.153,603.831 480,626.5C 489.434,642.188 493.434,659.188 492,677.5C 493.745,678.956 495.578,680.289 497.5,681.5C 504.749,667.17 510.749,652.336 515.5,637C 514.244,631.407 511.078,627.241 506,624.5C 505.564,622.704 506.231,621.371 508,620.5C 520.15,625.373 531.983,630.706 543.5,636.5C 534,658.167 524.5,679.833 515,701.5C 504.086,695.627 493.253,689.627 482.5,683.5C 482.493,666.988 476.16,653.488 463.5,643C 442.801,627.211 419.468,619.878 393.5,621C 371.282,625.553 357.115,638.72 351,660.5C 348.78,681.557 355.614,699.057 371.5,713C 388.888,726.299 408.555,733.799 430.5,735.5C 438.133,735.395 445.466,733.895 452.5,731C 456.999,727.993 461.332,724.826 465.5,721.5C 477.128,725.542 488.628,729.875 500,734.5C 491.214,756.088 482.38,777.755 473.5,799.5C 461.419,794.963 449.419,790.129 437.5,785C 436,782.833 436.5,781.333 439,780.5C 444.944,782.473 450.277,781.473 455,777.5C 457,774.167 459,770.833 461,767.5C 465.208,757.043 469.708,746.709 474.5,736.5C 472.399,733.948 469.733,732.781 466.5,733C 448.047,754.55 424.714,763.217 396.5,759C 358.513,748.001 338.846,722.667 337.5,683C 339.723,649.538 354.39,623.205 381.5,604C 390.467,599.182 399.8,595.682 409.5,593.5 Z"/></g>
<g><path style="opacity:1" fill="#050303" d="M 1993.5,595.5 C 2027.67,592.504 2054.17,605.17 2073,633.5C 2082.83,649.31 2087.99,666.476 2088.5,685C 2087.05,726.444 2066.05,751.444 2025.5,760C 1998.44,763.13 1976.44,754.13 1959.5,733C 1956.22,732.737 1953.22,733.571 1950.5,735.5C 1956.34,749.866 1962.84,763.866 1970,777.5C 1975.26,781.405 1981.1,782.572 1987.5,781C 1988.71,783.709 1987.71,785.375 1984.5,786C 1973.72,790.224 1963.05,794.724 1952.5,799.5C 1943.17,777.843 1933.84,756.176 1924.5,734.5C 1935.86,729.714 1947.52,725.714 1959.5,722.5C 1960.5,722.667 1961.5,722.833 1962.5,723C 1973.99,735.044 1987.99,739.378 2004.5,736C 2027.97,732.183 2047.81,721.683 2064,704.5C 2080.11,680.928 2079.27,658.094 2061.5,636C 2041.76,620.878 2020.09,617.545 1996.5,626C 1979.61,631.9 1965.11,641.4 1953,654.5C 1946.83,663.383 1943.66,673.216 1943.5,684C 1932.5,689.5 1921.5,695 1910.5,700.5C 1901.3,678.602 1891.97,656.769 1882.5,635C 1894.38,629.558 1906.38,624.391 1918.5,619.5C 1919.89,620.591 1920.39,621.924 1920,623.5C 1912.44,627.295 1909.77,633.295 1912,641.5C 1916.45,655.046 1921.95,668.046 1928.5,680.5C 1930.81,679.786 1932.98,678.786 1935,677.5C 1932.54,634.462 1952.04,607.128 1993.5,595.5 Z"/></g>
<g><path style="opacity:1" fill="#be6d0f" d="M 1260.5,595.5 C 1265.83,596.167 1271.17,596.833 1276.5,597.5C 1274.63,613.454 1273.29,629.454 1272.5,645.5C 1266.61,645.02 1260.95,644.02 1255.5,642.5C 1257.46,627.011 1259.12,611.344 1260.5,595.5 Z"/></g>
<g><path style="opacity:1" fill="#bf6d0f" d="M 1166.5,596.5 C 1167.45,612.068 1169.12,627.401 1171.5,642.5C 1166.02,643.859 1160.36,644.859 1154.5,645.5C 1153.17,629.833 1151.83,614.166 1150.5,598.5C 1155.82,597.704 1161.15,597.037 1166.5,596.5 Z"/></g>
<g><path style="opacity:1" fill="#df8816" d="M 1252.5,677.5 C 1252.43,683.597 1251.43,689.264 1249.5,694.5C 1243,688.171 1236.34,682.005 1229.5,676C 1237.22,675.58 1244.89,676.08 1252.5,677.5 Z"/></g>
<g><path style="opacity:1" fill="#e08916" d="M 1175.5,695.5 C 1175.53,691.141 1175.2,686.808 1174.5,682.5C 1174.72,680.545 1175.39,678.879 1176.5,677.5C 1183.09,676.01 1189.75,675.51 1196.5,676C 1189.93,683.073 1182.93,689.573 1175.5,695.5 Z"/></g>
<g><path style="opacity:1" fill="#bd6c0f" d="M 1176.5,677.5 C 1175.39,678.879 1174.72,680.545 1174.5,682.5C 1175.2,686.808 1175.53,691.141 1175.5,695.5C 1171.5,700.33 1167,704.664 1162,708.5C 1160.61,699.209 1159.45,689.875 1158.5,680.5C 1164.46,679.284 1170.46,678.284 1176.5,677.5 Z"/></g>
<g><path style="opacity:1" fill="#be6d0f" d="M 1252.5,677.5 C 1257.24,678.13 1261.9,679.13 1266.5,680.5C 1267.2,690.188 1266.7,699.855 1265,709.5C 1259.94,704.269 1254.77,699.269 1249.5,694.5C 1251.43,689.264 1252.43,683.597 1252.5,677.5 Z"/></g>
<g><path style="opacity:1" fill="#e58c16" d="M 1211.5,709.5 C 1212.55,709.351 1213.55,709.517 1214.5,710C 1216.21,712.043 1218.21,713.71 1220.5,715C 1242.73,735.945 1264.73,757.112 1286.5,778.5C 1262.5,803.167 1238.17,827.5 1213.5,851.5C 1188.68,827.181 1164.01,802.681 1139.5,778C 1163.7,755.3 1187.7,732.467 1211.5,709.5 Z"/></g>
<g><path style="opacity:1" fill="#b8690f" d="M 1690.5,710.5 C 1693.91,715.687 1696.58,721.354 1698.5,727.5C 1695.07,729.963 1691.57,732.297 1688,734.5C 1686.01,732.536 1684.51,730.203 1683.5,727.5C 1686.12,721.926 1688.46,716.259 1690.5,710.5 Z"/></g>
<g><path style="opacity:1" fill="#b96a0f" d="M 737.5,713.5 C 740.86,717.552 743.193,722.219 744.5,727.5C 744.03,729.774 743.03,731.774 741.5,733.5C 737.742,732.222 734.742,730.055 732.5,727C 734.272,722.515 735.939,718.015 737.5,713.5 Z"/></g>
<g><path style="opacity:1" fill="#0a0400" d="M 1205.5,742.5 C 1228.81,740.411 1243.31,750.744 1249,773.5C 1251.14,791.371 1244.98,805.537 1230.5,816C 1212.51,824.295 1197.68,820.462 1186,804.5C 1175.75,785.305 1177.59,767.472 1191.5,751C 1195.83,747.477 1200.5,744.644 1205.5,742.5 Z"/></g>
<g><path style="opacity:1" fill="#e12828" d="M 1208.5,756.5 C 1222.28,755.104 1231.12,761.104 1235,774.5C 1236.73,784.542 1234.23,793.375 1227.5,801C 1210.97,810.327 1199.8,805.827 1194,787.5C 1191.37,773.428 1196.21,763.095 1208.5,756.5 Z"/></g>
<g><path style="opacity:1" fill="#be6d0f" d="M 722.5,801.5 C 717.167,797.833 711.833,794.167 706.5,790.5C 709.172,782.655 712.339,774.989 716,767.5C 720.134,769.973 723.967,772.806 727.5,776C 725.56,784.478 723.893,792.978 722.5,801.5 Z"/></g>
<g><path style="opacity:1" fill="#bf6e0f" d="M 1723.5,790.5 C 1718.53,793.99 1713.53,797.49 1708.5,801C 1707.18,801.816 1706.51,802.983 1706.5,804.5C 1704.93,795.457 1703.26,786.29 1701.5,777C 1705.45,773.354 1709.78,770.187 1714.5,767.5C 1718.1,774.956 1721.1,782.623 1723.5,790.5 Z"/></g>
<g><path style="opacity:1" fill="#040000" d="M 1018.5,777.5 C 1031.24,776.59 1043.24,779.09 1054.5,785C 1068.65,795.339 1081.48,807.172 1093,820.5C 1096.14,825.118 1098.48,830.118 1100,835.5C 1100.33,845.5 1100.67,855.5 1101,865.5C 1102.67,872.679 1104.84,879.679 1107.5,886.5C 1107.44,889.111 1106.44,891.278 1104.5,893C 1100.26,894.457 1095.93,894.791 1091.5,894C 1085.17,891 1078.83,888 1072.5,885C 1067.21,883.785 1061.88,882.785 1056.5,882C 1040.8,881.146 1025.13,880.146 1009.5,879C 994.565,875.293 982.398,867.46 973,855.5C 969.543,846.679 966.543,837.679 964,828.5C 961.105,818.939 954.939,812.772 945.5,810C 941.337,807.179 939.837,803.345 941,798.5C 960.587,796.874 979.754,793.04 998.5,787C 1004.87,782.977 1011.54,779.811 1018.5,777.5 Z"/></g>
<g><path style="opacity:1" fill="#020000" d="M 1394.5,777.5 C 1408.73,776.473 1421.73,779.973 1433.5,788C 1451.34,794.028 1469.67,797.362 1488.5,798C 1490.36,802.969 1489.03,806.969 1484.5,810C 1478.83,810.998 1474.33,813.831 1471,818.5C 1465.74,830.622 1461.07,842.955 1457,855.5C 1447.14,868.021 1434.31,875.855 1418.5,879C 1402.85,880.111 1387.18,881.111 1371.5,882C 1365.72,882.861 1360.06,884.194 1354.5,886C 1349.45,889.194 1344.11,891.861 1338.5,894C 1326.86,897.298 1322.03,893.132 1324,881.5C 1325.86,876.909 1327.53,872.243 1329,867.5C 1330.19,855.875 1330.86,844.208 1331,832.5C 1336.22,821.605 1343.38,812.105 1352.5,804C 1361.32,795.515 1370.98,788.182 1381.5,782C 1385.89,780.329 1390.23,778.829 1394.5,777.5 Z"/></g>
<g><path style="opacity:1" fill="#e68c16" d="M 706.5,790.5 C 711.833,794.167 717.167,797.833 722.5,801.5C 720.205,822.119 718.372,842.785 717,863.5C 706.969,856.637 696.802,849.97 686.5,843.5C 685.417,842.635 685.251,841.635 686,840.5C 692.572,823.694 699.406,807.027 706.5,790.5 Z"/></g>
<g><path style="opacity:1" fill="#e78d16" d="M 1723.5,790.5 C 1730.8,806.53 1737.63,822.863 1744,839.5C 1744.78,840.944 1744.61,842.277 1743.5,843.5C 1732.91,850.376 1722.41,857.376 1712,864.5C 1710.33,844.479 1708.5,824.479 1706.5,804.5C 1706.51,802.983 1707.18,801.816 1708.5,801C 1713.53,797.49 1718.53,793.99 1723.5,790.5 Z"/></g>
<g><path style="opacity:1" fill="#c06e0f" d="M 715.5,943.5 C 697.388,932.606 679.388,921.439 661.5,910C 660.552,909.517 659.552,909.351 658.5,909.5C 661.847,900.29 665.681,891.29 670,882.5C 685,892.5 700,902.5 715,912.5C 715.5,922.828 715.666,933.161 715.5,943.5 Z"/></g>
<g><path style="opacity:1" fill="#c16f0f" d="M 1771.5,908.5 C 1752.52,920.473 1733.52,932.473 1714.5,944.5C 1713.83,950.319 1713.17,955.986 1712.5,961.5C 1712.81,945.496 1713.31,929.496 1714,913.5C 1729.59,903.291 1745.09,892.957 1760.5,882.5C 1764.56,890.998 1768.22,899.665 1771.5,908.5 Z"/></g>
<g><path style="opacity:1" fill="#fefefe" d="M 1171.5,1057.5 C 1156.65,1059.97 1142.32,1064.47 1128.5,1071C 1115.01,1079.83 1109.51,1092.33 1112,1108.5C 1116.93,1137.53 1130.09,1162.03 1151.5,1182C 1166.83,1193.83 1184.17,1201 1203.5,1203.5C 1200.29,1214.26 1193.96,1222.59 1184.5,1228.5C 1160.6,1228.81 1136.93,1231.31 1113.5,1236C 1100.15,1237.9 1086.82,1237.9 1073.5,1236C 1061.47,1233.08 1051.97,1226.58 1045,1216.5C 1032.77,1179.81 1017.44,1144.48 999,1110.5C 992.627,1099.46 984.793,1089.63 975.5,1081C 962.016,1075.49 952.183,1079.33 946,1092.5C 945.087,1098.04 945.754,1103.37 948,1108.5C 952.712,1113.54 957.045,1118.88 961,1124.5C 979.54,1157.25 994.54,1191.58 1006,1227.5C 1015.78,1249.28 1031.94,1264.11 1054.5,1272C 1061.85,1273.73 1069.18,1275.56 1076.5,1277.5C 1081.07,1306.06 1089.57,1333.39 1102,1359.5C 1122.08,1396.15 1153.25,1415.48 1195.5,1417.5C 1198.46,1420.96 1201.63,1424.3 1205,1427.5C 1215.47,1439.62 1214.97,1451.12 1203.5,1462C 1188.76,1471.19 1172.76,1476.69 1155.5,1478.5C 1128.72,1470.44 1105.72,1456.28 1086.5,1436C 1077.47,1430.05 1068.47,1430.05 1059.5,1436C 1051.68,1445.67 1051.51,1455.5 1059,1465.5C 1062.06,1468.73 1065.23,1471.73 1068.5,1474.5C 1074.51,1490.19 1082.35,1504.86 1092,1518.5C 1113.52,1548.36 1136.19,1577.36 1160,1605.5C 1163.99,1610.31 1166.49,1615.81 1167.5,1622C 1167.36,1626.95 1165.36,1630.95 1161.5,1634C 1156.44,1636.91 1151.1,1639.24 1145.5,1641C 1133.45,1643.36 1121.28,1644.53 1109,1644.5C 1092.07,1643.65 1075.23,1642.15 1058.5,1640C 1057.07,1640.47 1055.9,1641.3 1055,1642.5C 1054.15,1647.98 1054.65,1653.32 1056.5,1658.5C 936.529,1571.19 816.862,1483.52 697.5,1395.5C 730.448,1349.93 764.115,1304.93 798.5,1260.5C 816.422,1286.27 837.422,1309.43 861.5,1330C 872.34,1337.83 882.506,1337 892,1327.5C 896.611,1319.47 896.611,1311.47 892,1303.5C 880.029,1293.7 868.862,1283.03 858.5,1271.5C 852.184,1252.58 846.017,1233.58 840,1214.5C 828.685,1179.28 821.019,1143.28 817,1106.5C 816.333,1091.83 816.333,1077.17 817,1062.5C 818.94,1032.52 825.273,1003.52 836,975.5C 849.767,942.065 873.6,919.231 907.5,907C 953.97,895.523 999.303,898.856 1043.5,917C 1066.25,926.757 1084.42,941.923 1098,962.5C 1115.28,999.697 1139.78,1031.36 1171.5,1057.5 Z"/></g>
<g><path style="opacity:1" fill="#d7d1cc" d="M 1570.5,1270.5 C 1566.41,1276.09 1561.74,1281.26 1556.5,1286C 1549.57,1292.05 1542.74,1298.22 1536,1304.5C 1529.72,1318 1533.22,1328.17 1546.5,1335C 1552.86,1336.1 1558.86,1335.1 1564.5,1332C 1569,1328.33 1573.33,1324.5 1577.5,1320.5C 1578.89,1331.95 1583.06,1342.28 1590,1351.5C 1602.08,1368.58 1617.91,1380.74 1637.5,1388C 1663.9,1396.38 1690.9,1401.88 1718.5,1404.5C 1550.8,1528.36 1382.63,1651.69 1214,1774.5C 1161.32,1735.97 1108.82,1697.3 1056.5,1658.5C 1054.65,1653.32 1054.15,1647.98 1055,1642.5C 1055.9,1641.3 1057.07,1640.47 1058.5,1640C 1075.23,1642.15 1092.07,1643.65 1109,1644.5C 1121.28,1644.53 1133.45,1643.36 1145.5,1641C 1151.1,1639.24 1156.44,1636.91 1161.5,1634C 1165.36,1630.95 1167.36,1626.95 1167.5,1622C 1166.49,1615.81 1163.99,1610.31 1160,1605.5C 1136.19,1577.36 1113.52,1548.36 1092,1518.5C 1082.35,1504.86 1074.51,1490.19 1068.5,1474.5C 1114.83,1513.66 1168.49,1531.16 1229.5,1527C 1285.1,1524.11 1332.27,1502.94 1371,1463.5C 1377.8,1453.04 1376.63,1443.54 1367.5,1435C 1359.96,1430.84 1352.3,1430.51 1344.5,1434C 1314.48,1465.01 1277.81,1482.67 1234.5,1487C 1207.39,1489.88 1181.06,1487.04 1155.5,1478.5C 1172.76,1476.69 1188.76,1471.19 1203.5,1462C 1214.97,1451.12 1215.47,1439.62 1205,1427.5C 1201.63,1424.3 1198.46,1420.96 1195.5,1417.5C 1208.5,1417.67 1221.5,1417.5 1234.5,1417C 1275.51,1414.77 1306.01,1395.93 1326,1360.5C 1338.85,1333.76 1347.68,1305.76 1352.5,1276.5C 1385.64,1273.17 1409.14,1256.5 1423,1226.5C 1433.71,1192.41 1447.71,1159.74 1465,1128.5C 1469.24,1121.59 1474.24,1115.26 1480,1109.5C 1486.34,1095.36 1482.51,1085.2 1468.5,1079C 1462.41,1077.73 1456.74,1078.73 1451.5,1082C 1441.07,1092.09 1432.57,1103.59 1426,1116.5C 1409.19,1149.13 1394.85,1182.79 1383,1217.5C 1375.71,1227.57 1365.88,1233.74 1353.5,1236C 1342.54,1237.49 1331.54,1237.82 1320.5,1237C 1304.87,1234.42 1289.21,1232.09 1273.5,1230C 1243.85,1228.66 1214.18,1228.16 1184.5,1228.5C 1193.96,1222.59 1200.29,1214.26 1203.5,1203.5C 1246.5,1206.09 1279,1189.09 1301,1152.5C 1312.6,1134.11 1317.6,1114.11 1316,1092.5C 1312.69,1080.52 1305.19,1072.36 1293.5,1068C 1281.82,1063.58 1269.82,1060.41 1257.5,1058.5C 1266.77,1049.73 1275.94,1040.73 1285,1031.5C 1303.07,1012.37 1317.4,990.707 1328,966.5C 1335.66,953.503 1345.49,942.336 1357.5,933C 1395.88,907.313 1438.21,896.646 1484.5,901C 1510.09,902.086 1533.42,909.753 1554.5,924C 1573.89,940.25 1587.72,960.417 1596,984.5C 1614.43,1040.77 1617.09,1097.77 1604,1155.5C 1594.76,1194.4 1583.59,1232.73 1570.5,1270.5 Z"/></g>
<g><path style="opacity:1" fill="#e88d16" d="M 658.5,909.5 C 659.552,909.351 660.552,909.517 661.5,910C 679.388,921.439 697.388,932.606 715.5,943.5C 716.251,965.518 717.085,987.518 718,1009.5C 691.748,992.291 665.581,974.957 639.5,957.5C 645.849,941.474 652.182,925.474 658.5,909.5 Z"/></g>
<g><path style="opacity:1" fill="#e78d16" d="M 1771.5,908.5 C 1777.96,924.585 1784.29,940.752 1790.5,957C 1790.36,957.772 1790.02,958.439 1789.5,959C 1762.74,976.127 1736.24,993.627 1710,1011.5C 1710.4,994.826 1711.24,978.16 1712.5,961.5C 1713.17,955.986 1713.83,950.319 1714.5,944.5C 1733.52,932.473 1752.52,920.473 1771.5,908.5 Z"/></g>
<g><path style="opacity:1" fill="#6e6e6e" d="M 1978.5,917.5 C 1991.66,916.504 2004.99,916.171 2018.5,916.5C 2018.78,918.415 2018.45,920.081 2017.5,921.5C 2017.5,920.167 2017.5,918.833 2017.5,917.5C 2004.5,917.5 1991.5,917.5 1978.5,917.5 Z"/></g>
<g><path style="opacity:1" fill="#060404" d="M 408.5,917.5 C 421.833,917.5 435.167,917.5 448.5,917.5C 447.877,941.495 447.544,965.495 447.5,989.5C 434.96,988.494 422.46,987.161 410,985.5C 404.034,970.868 393.534,961.035 378.5,956C 359.654,950.886 340.654,950.22 321.5,954C 287.587,964.905 274.42,987.739 282,1022.5C 292.453,1043.27 309.287,1055.1 332.5,1058C 347.326,1059.2 361.992,1058.2 376.5,1055C 391.52,1050.65 402.187,1041.31 408.5,1027C 421.167,1026.44 433.834,1025.94 446.5,1025.5C 445.841,1049.16 445.507,1072.83 445.5,1096.5C 432.167,1096.5 418.833,1096.5 405.5,1096.5C 405.5,1094.83 405.5,1093.17 405.5,1091.5C 414.016,1091.82 419.183,1087.82 421,1079.5C 422.391,1065.21 422.891,1050.88 422.5,1036.5C 419.428,1036.18 416.428,1036.52 413.5,1037.5C 399.642,1075.81 372.308,1092.64 331.5,1088C 301.05,1080.52 281.55,1061.69 273,1031.5C 265.495,1002.52 269.828,975.518 286,950.5C 312.719,920.013 344.552,913.513 381.5,931C 398.71,942.073 410.376,957.406 416.5,977C 418.81,977.497 421.143,977.663 423.5,977.5C 423.845,968.003 424.178,958.503 424.5,949C 424.573,942.77 424.073,936.603 423,930.5C 419.86,924.845 415.026,922.178 408.5,922.5C 408.5,920.833 408.5,919.167 408.5,917.5 Z"/></g>
<g><path style="opacity:1" fill="#050303" d="M 1978.5,917.5 C 1991.5,917.5 2004.5,917.5 2017.5,917.5C 2017.5,918.833 2017.5,920.167 2017.5,921.5C 2010.36,921.488 2005.52,924.821 2003,931.5C 2002.5,946.83 2002.33,962.163 2002.5,977.5C 2005.45,977.777 2008.28,977.444 2011,976.5C 2023.09,938.193 2049.26,920.36 2089.5,923C 2126.41,930.244 2148.24,952.41 2155,989.5C 2158.43,1013.25 2154.43,1035.59 2143,1056.5C 2125.37,1081.56 2101.21,1092.39 2070.5,1089C 2040.7,1083.53 2021.2,1066.36 2012,1037.5C 2010.64,1036.62 2009.14,1036.29 2007.5,1036.5C 2006.08,1035.55 2004.41,1035.22 2002.5,1035.5C 2002.18,1043.02 2002.51,1050.35 2003.5,1057.5C 2002.91,1066.66 2003.74,1075.66 2006,1084.5C 2009.33,1089.08 2013.83,1091.42 2019.5,1091.5C 2019.5,1092.83 2019.5,1094.17 2019.5,1095.5C 2006.5,1095.5 1993.5,1095.5 1980.5,1095.5C 1980.83,1084.99 1980.49,1074.65 1979.5,1064.5C 1979.5,1051.5 1979.5,1038.5 1979.5,1025.5C 1992.2,1025.75 2004.87,1026.58 2017.5,1028C 2025.47,1046.28 2039.47,1056.62 2059.5,1059C 2072.87,1059.83 2086.2,1059.5 2099.5,1058C 2134.71,1049.38 2149.88,1027.22 2145,991.5C 2134.65,967.84 2116.48,955.007 2090.5,953C 2070.8,950.727 2052.14,954.06 2034.5,963C 2026.59,969.138 2020.59,976.805 2016.5,986C 2003.81,986.635 1991.15,987.469 1978.5,988.5C 1978.5,964.833 1978.5,941.167 1978.5,917.5 Z"/></g>
<g><path style="opacity:1" fill="#c16f0f" d="M 1816.5,1023.5 C 1775.9,1048.1 1735.57,1073.1 1695.5,1098.5C 1697.39,1087.54 1699.73,1076.71 1702.5,1066C 1736.77,1044.06 1770.77,1021.73 1804.5,999C 1805.45,998.517 1806.45,998.351 1807.5,998.5C 1810.3,1006.9 1813.3,1015.24 1816.5,1023.5 Z"/></g>
<g><path style="opacity:1" fill="#c16f0f" d="M 732.5,1096.5 C 693.167,1072.17 653.833,1047.83 614.5,1023.5C 617.002,1014.83 620.335,1006.5 624.5,998.5C 658.961,1020.81 693.128,1043.47 727,1066.5C 728.643,1076.55 730.477,1086.55 732.5,1096.5 Z"/></g>
<g><path style="opacity:1" fill="#e88e16" d="M 614.5,1023.5 C 653.833,1047.83 693.167,1072.17 732.5,1096.5C 733.163,1098.8 733.83,1101.14 734.5,1103.5C 724.74,1117.77 715.573,1132.43 707,1147.5C 670,1123.17 633,1098.83 596,1074.5C 595.333,1072.83 595.333,1071.17 596,1069.5C 601.9,1053.95 608.067,1038.61 614.5,1023.5 Z"/></g>
<g><path style="opacity:1" fill="#e88e16" d="M 1816.5,1023.5 C 1823.12,1039.85 1829.45,1056.35 1835.5,1073C 1798.13,1098.78 1760.29,1123.94 1722,1148.5C 1713.75,1133.66 1704.75,1119.33 1695,1105.5C 1694.3,1103.07 1694.46,1100.74 1695.5,1098.5C 1735.57,1073.1 1775.9,1048.1 1816.5,1023.5 Z"/></g>
<g><path style="opacity:1" fill="#4f4e4e" d="M 2007.5,1036.5 C 2006.17,1036.5 2004.83,1036.5 2003.5,1036.5C 2003.5,1043.5 2003.5,1050.5 2003.5,1057.5C 2002.51,1050.35 2002.18,1043.02 2002.5,1035.5C 2004.41,1035.22 2006.08,1035.55 2007.5,1036.5 Z"/></g>
<g><path style="opacity:1" fill="#020000" d="M 1226.5,1054.5 C 1236.7,1055.81 1247.03,1057.15 1257.5,1058.5C 1269.82,1060.41 1281.82,1063.58 1293.5,1068C 1305.19,1072.36 1312.69,1080.52 1316,1092.5C 1317.6,1114.11 1312.6,1134.11 1301,1152.5C 1279,1189.09 1246.5,1206.09 1203.5,1203.5C 1184.17,1201 1166.83,1193.83 1151.5,1182C 1130.09,1162.03 1116.93,1137.53 1112,1108.5C 1109.51,1092.33 1115.01,1079.83 1128.5,1071C 1142.32,1064.47 1156.65,1059.97 1171.5,1057.5C 1189.75,1055.15 1208.09,1054.15 1226.5,1054.5 Z"/></g>
<g><path style="opacity:1" fill="#030101" d="M 1184.5,1228.5 C 1214.18,1228.16 1243.85,1228.66 1273.5,1230C 1289.21,1232.09 1304.87,1234.42 1320.5,1237C 1331.54,1237.82 1342.54,1237.49 1353.5,1236C 1365.88,1233.74 1375.71,1227.57 1383,1217.5C 1394.85,1182.79 1409.19,1149.13 1426,1116.5C 1432.57,1103.59 1441.07,1092.09 1451.5,1082C 1456.74,1078.73 1462.41,1077.73 1468.5,1079C 1482.51,1085.2 1486.34,1095.36 1480,1109.5C 1474.24,1115.26 1469.24,1121.59 1465,1128.5C 1447.71,1159.74 1433.71,1192.41 1423,1226.5C 1409.14,1256.5 1385.64,1273.17 1352.5,1276.5C 1347.68,1305.76 1338.85,1333.76 1326,1360.5C 1306.01,1395.93 1275.51,1414.77 1234.5,1417C 1221.5,1417.5 1208.5,1417.67 1195.5,1417.5C 1153.25,1415.48 1122.08,1396.15 1102,1359.5C 1089.57,1333.39 1081.07,1306.06 1076.5,1277.5C 1069.18,1275.56 1061.85,1273.73 1054.5,1272C 1031.94,1264.11 1015.78,1249.28 1006,1227.5C 994.54,1191.58 979.54,1157.25 961,1124.5C 957.045,1118.88 952.712,1113.54 948,1108.5C 945.754,1103.37 945.087,1098.04 946,1092.5C 952.183,1079.33 962.016,1075.49 975.5,1081C 984.793,1089.63 992.627,1099.46 999,1110.5C 1017.44,1144.48 1032.77,1179.81 1045,1216.5C 1051.97,1226.58 1061.47,1233.08 1073.5,1236C 1086.82,1237.9 1100.15,1237.9 1113.5,1236C 1136.93,1231.31 1160.6,1228.81 1184.5,1228.5 Z"/></g>
<g><path style="opacity:1" fill="#484646" d="M 1979.5,1064.5 C 1980.49,1074.65 1980.83,1084.99 1980.5,1095.5C 1993.5,1095.5 2006.5,1095.5 2019.5,1095.5C 2006.34,1096.5 1993.01,1096.83 1979.5,1096.5C 1979.5,1085.83 1979.5,1075.17 1979.5,1064.5 Z"/></g>
<g><path style="opacity:1" fill="#c16f0f" d="M 678.5,1208.5 C 642.173,1186 605.506,1164 568.5,1142.5C 572.032,1133.24 575.366,1123.9 578.5,1114.5C 615.785,1137.48 652.452,1161.48 688.5,1186.5C 685.338,1194.02 682.004,1201.35 678.5,1208.5 Z"/></g>
<g><path style="opacity:1" fill="#c16f0f" d="M 1861.5,1142.5 C 1824.23,1164.44 1787.23,1186.78 1750.5,1209.5C 1747.26,1202.98 1744.09,1196.31 1741,1189.5C 1740.32,1188.22 1740.48,1187.05 1741.5,1186C 1777.83,1162.17 1814.17,1138.33 1850.5,1114.5C 1854.93,1123.45 1858.6,1132.78 1861.5,1142.5 Z"/></g>
<g><path style="opacity:1" fill="#e88e16" d="M 1861.5,1142.5 C 1867.6,1157.28 1873.43,1172.28 1879,1187.5C 1879.67,1188.5 1879.67,1189.5 1879,1190.5C 1843.59,1214.12 1808.09,1237.62 1772.5,1261C 1771.26,1261.46 1770.42,1260.96 1770,1259.5C 1763.59,1242.77 1757.09,1226.1 1750.5,1209.5C 1787.23,1186.78 1824.23,1164.44 1861.5,1142.5 Z"/></g>
<g><path style="opacity:1" fill="#e88e16" d="M 568.5,1142.5 C 605.506,1164 642.173,1186 678.5,1208.5C 671.736,1225.03 665.236,1241.7 659,1258.5C 658.577,1259.96 657.744,1260.46 656.5,1260C 621.167,1236.67 585.833,1213.33 550.5,1190C 556.646,1174.21 562.646,1158.38 568.5,1142.5 Z"/></g>
<g><path style="opacity:1" fill="#f9851d" d="M 1731.5,1395.5 C 1698.24,1349.91 1664.24,1304.91 1629.5,1260.5C 1650.58,1227.66 1667.42,1192.66 1680,1155.5C 1705.55,1204.15 1727.22,1254.49 1745,1306.5C 1752.07,1326.36 1758.73,1346.36 1765,1366.5C 1765.8,1368.26 1765.63,1369.93 1764.5,1371.5C 1753.48,1379.52 1742.48,1387.52 1731.5,1395.5 Z"/></g>
<g><path style="opacity:1" fill="#f9851d" d="M 798.5,1260.5 C 764.115,1304.93 730.448,1349.93 697.5,1395.5C 685.084,1387.57 673.417,1378.74 662.5,1369C 684.656,1296.86 712.489,1227.03 746,1159.5C 746.833,1158.5 747.667,1157.5 748.5,1156.5C 761.443,1193.05 778.109,1227.72 798.5,1260.5 Z"/></g>
<g><path style="opacity:1" fill="#c16f0f" d="M 1905.5,1261.5 C 1869.18,1286 1833.18,1311 1797.5,1336.5C 1793.8,1325.23 1789.8,1314.06 1785.5,1303C 1821.17,1279.33 1856.83,1255.67 1892.5,1232C 1893.45,1231.52 1894.45,1231.35 1895.5,1231.5C 1898.83,1241.5 1902.17,1251.5 1905.5,1261.5 Z"/></g>
<g><path style="opacity:1" fill="#c16f0f" d="M 630.5,1337.5 C 630.649,1336.45 630.483,1335.45 630,1334.5C 595.165,1309.51 559.998,1285.18 524.5,1261.5C 527.933,1251.19 531.933,1241.19 536.5,1231.5C 571.5,1254.33 606.5,1277.17 641.5,1300C 642.554,1301.39 642.72,1302.89 642,1304.5C 638.428,1315.72 634.595,1326.72 630.5,1337.5 Z"/></g>
<g><path style="opacity:1" fill="#e88e16" d="M 524.5,1261.5 C 559.998,1285.18 595.165,1309.51 630,1334.5C 630.483,1335.45 630.649,1336.45 630.5,1337.5C 625.687,1351.61 621.687,1365.94 618.5,1380.5C 581.631,1356.24 544.965,1331.74 508.5,1307C 513.742,1291.77 519.075,1276.61 524.5,1261.5 Z"/></g>
<g><path style="opacity:1" fill="#fefefe" d="M 1629.5,1260.5 C 1664.24,1304.91 1698.24,1349.91 1731.5,1395.5C 1727.44,1398.89 1723.11,1401.89 1718.5,1404.5C 1690.9,1401.88 1663.9,1396.38 1637.5,1388C 1617.91,1380.74 1602.08,1368.58 1590,1351.5C 1583.06,1342.28 1578.89,1331.95 1577.5,1320.5C 1597.45,1302.57 1614.78,1282.57 1629.5,1260.5 Z"/></g>
<g><path style="opacity:1" fill="#e88e16" d="M 1905.5,1261.5 C 1910.74,1275.36 1915.9,1289.36 1921,1303.5C 1921.74,1305.44 1921.58,1307.27 1920.5,1309C 1883.67,1333.17 1846.83,1357.33 1810,1381.5C 1806.76,1366.26 1802.59,1351.26 1797.5,1336.5C 1833.18,1311 1869.18,1286 1905.5,1261.5 Z"/></g>
<g><path style="opacity:1" fill="#d41217" d="M 1303.5,1309.5 C 1280.78,1300.74 1257.11,1295.57 1232.5,1294C 1196.79,1291.13 1162.13,1295.8 1128.5,1308C 1127.06,1308.38 1126.06,1309.21 1125.5,1310.5C 1121.43,1299.22 1118.43,1287.55 1116.5,1275.5C 1142.09,1270.6 1167.93,1267.93 1194,1267.5C 1212.82,1267.84 1231.65,1268.01 1250.5,1268C 1270.93,1269.76 1291.26,1272.26 1311.5,1275.5C 1309.89,1287.21 1307.22,1298.54 1303.5,1309.5 Z"/></g>
<g><path style="opacity:1" fill="#d5d5d5" d="M 413.5,1276.5 C 430.559,1275.24 445.059,1280.57 457,1292.5C 461.11,1291.18 465.276,1290.18 469.5,1289.5C 459.712,1318.86 449.712,1348.2 439.5,1377.5C 417.076,1391.46 393.41,1394.3 368.5,1386C 346.219,1374.23 337.053,1355.73 341,1330.5C 347.553,1308.94 361.387,1294.11 382.5,1286C 392.676,1281.88 403.009,1278.72 413.5,1276.5 Z"/></g>
<g><path style="opacity:1" fill="#d5d5d5" d="M 1992.5,1278.5 C 2017.86,1276.86 2040.86,1283.36 2061.5,1298C 2084.99,1316.44 2090.82,1339.27 2079,1366.5C 2067.41,1384.22 2050.91,1392.88 2029.5,1392.5C 2016.57,1391.89 2004.4,1388.56 1993,1382.5C 1982.56,1351.83 1971.72,1321.33 1960.5,1291C 1963.65,1292.19 1966.98,1292.52 1970.5,1292C 1976.79,1285.69 1984.13,1281.19 1992.5,1278.5 Z"/></g>
<g><path style="opacity:1" fill="#fc0f1c" d="M 1303.5,1309.5 C 1299,1327.21 1291.16,1343.21 1280,1357.5C 1260.98,1373.97 1238.82,1380.64 1213.5,1377.5C 1191.94,1380.03 1172.28,1375.19 1154.5,1363C 1139.77,1348.38 1130.1,1330.88 1125.5,1310.5C 1126.06,1309.21 1127.06,1308.38 1128.5,1308C 1162.13,1295.8 1196.79,1291.13 1232.5,1294C 1257.11,1295.57 1280.78,1300.74 1303.5,1309.5 Z"/></g>
<g><path style="opacity:1" fill="#c26f0f" d="M 1947.5,1380.5 C 1832.45,1453.36 1720.11,1530.19 1610.5,1611C 1585.82,1629.67 1562.32,1649.84 1540,1671.5C 1536.92,1674.66 1534.58,1678.33 1533,1682.5C 1532.09,1707.85 1533.92,1732.85 1538.5,1757.5C 1523.69,1793.07 1514.36,1830.07 1510.5,1868.5C 1499.53,1875.64 1488.7,1882.97 1478,1890.5C 1479.73,1847.19 1481.4,1803.86 1483,1760.5C 1483.77,1725.66 1483.61,1690.83 1482.5,1656C 1482.67,1653.17 1482.83,1650.33 1483,1647.5C 1633.7,1547.97 1784.53,1448.64 1935.5,1349.5C 1940.65,1359.28 1944.65,1369.61 1947.5,1380.5 Z"/></g>
<g><path style="opacity:1" fill="#c26f0f" d="M 891.5,1756.5 C 892.117,1756.39 892.617,1756.06 893,1755.5C 896.437,1731.6 898.103,1707.6 898,1683.5C 892.641,1674.47 886.141,1666.3 878.5,1659C 831.875,1619.7 783.542,1582.7 733.5,1548C 651.316,1490.41 567.982,1434.58 483.5,1380.5C 486.357,1370.43 489.524,1360.43 493,1350.5C 494.049,1349.48 495.216,1349.32 496.5,1350C 646.662,1449.25 796.995,1548.25 947.5,1647C 947.39,1684.41 947.557,1721.91 948,1759.5C 948.746,1801.72 950.579,1843.89 953.5,1886C 953.167,1887.5 952.833,1889 952.5,1890.5C 941.246,1882.96 930.08,1875.29 919,1867.5C 915.948,1828.96 906.781,1791.96 891.5,1756.5 Z"/></g>
<g><path style="opacity:1" fill="#e88d16" d="M 483.5,1380.5 C 567.982,1434.58 651.316,1490.41 733.5,1548C 783.542,1582.7 831.875,1619.7 878.5,1659C 886.141,1666.3 892.641,1674.47 898,1683.5C 898.103,1707.6 896.437,1731.6 893,1755.5C 892.617,1756.06 892.117,1756.39 891.5,1756.5C 868.011,1702.69 835.011,1655.53 792.5,1615C 738.702,1565.26 678.368,1524.92 611.5,1494C 563.492,1472.05 514.158,1453.55 463.5,1438.5C 469.603,1418.86 476.269,1399.52 483.5,1380.5 Z"/></g>
<g><path style="opacity:1" fill="#e88e16" d="M 1947.5,1380.5 C 1954.44,1399.97 1960.77,1419.64 1966.5,1439.5C 1870.47,1465.42 1781.8,1506.59 1700.5,1563C 1639,1606.58 1589.84,1661.08 1553,1726.5C 1547.61,1736.62 1542.77,1746.95 1538.5,1757.5C 1533.92,1732.85 1532.09,1707.85 1533,1682.5C 1534.58,1678.33 1536.92,1674.66 1540,1671.5C 1562.32,1649.84 1585.82,1629.67 1610.5,1611C 1720.11,1530.19 1832.45,1453.36 1947.5,1380.5 Z"/></g>
<g><path style="opacity:1" fill="#030101" d="M 1155.5,1478.5 C 1181.06,1487.04 1207.39,1489.88 1234.5,1487C 1277.81,1482.67 1314.48,1465.01 1344.5,1434C 1352.3,1430.51 1359.96,1430.84 1367.5,1435C 1376.63,1443.54 1377.8,1453.04 1371,1463.5C 1332.27,1502.94 1285.1,1524.11 1229.5,1527C 1168.49,1531.16 1114.83,1513.66 1068.5,1474.5C 1065.23,1471.73 1062.06,1468.73 1059,1465.5C 1051.51,1455.5 1051.68,1445.67 1059.5,1436C 1068.47,1430.05 1077.47,1430.05 1086.5,1436C 1105.72,1456.28 1128.72,1470.44 1155.5,1478.5 Z"/></g>
<g><path style="opacity:1" fill="#e88d16" d="M 450.5,1479.5 C 529.863,1501.02 604.53,1533.19 674.5,1576C 736.441,1614.27 787.607,1663.77 828,1724.5C 853.496,1764.98 869.496,1808.98 876,1856.5C 876.333,1864.83 876.667,1873.17 877,1881.5C 878.167,1887.34 881,1892.17 885.5,1896C 909.593,1911.8 933.426,1927.96 957,1944.5C 960.724,1974.41 963.391,2004.41 965,2034.5C 921.327,2008.58 876.494,1984.58 830.5,1962.5C 830.755,1873.07 802.255,1794.41 745,1726.5C 701.493,1677.64 650.993,1637.81 593.5,1607C 541.684,1579.76 488.018,1556.92 432.5,1538.5C 438.351,1518.76 444.351,1499.09 450.5,1479.5 Z"/></g>
<g><path style="opacity:1" fill="#e88d16" d="M 1466.5,2033.5 C 1465.54,2031.74 1465.21,2029.74 1465.5,2027.5C 1467.74,1999.82 1470.24,1972.15 1473,1944.5C 1497.5,1928 1522,1911.5 1546.5,1895C 1549.57,1891.7 1551.73,1887.87 1553,1883.5C 1554.57,1830.46 1568.9,1781.12 1596,1735.5C 1627.37,1684.13 1667.2,1640.29 1715.5,1604C 1795.97,1546.44 1884.3,1504.94 1980.5,1479.5C 1986.16,1498.81 1991.83,1518.15 1997.5,1537.5C 1997.17,1538.17 1996.83,1538.83 1996.5,1539.5C 1921.02,1562.81 1850.36,1595.97 1784.5,1639C 1727.06,1677.11 1680.56,1725.61 1645,1784.5C 1614.81,1839.61 1600.14,1898.61 1601,1961.5C 1555.11,1983.86 1510.27,2007.86 1466.5,2033.5 Z"/></g>
<g><path style="opacity:1" fill="#2c1404" d="M 550.5,1533.5 C 569.488,1531.99 578.321,1540.66 577,1559.5C 572.377,1571.73 563.544,1576.57 550.5,1574C 537.795,1567.91 533.628,1558.07 538,1544.5C 541.124,1539.54 545.291,1535.87 550.5,1533.5 Z"/></g>
<g><path style="opacity:1" fill="#2c1304" d="M 1868.5,1533.5 C 1886.47,1532.3 1894.97,1540.64 1894,1558.5C 1889.6,1570.96 1880.76,1576.13 1867.5,1574C 1853.7,1567.21 1849.86,1556.71 1856,1542.5C 1859.35,1538.1 1863.51,1535.1 1868.5,1533.5 Z"/></g>
<g><path style="opacity:1" fill="#e02828" d="M 551.5,1540.5 C 564.661,1538.83 570.828,1544.5 570,1557.5C 568.833,1562.67 565.667,1565.83 560.5,1567C 553.989,1568.87 548.822,1567.04 545,1561.5C 541.352,1552.56 543.519,1545.56 551.5,1540.5 Z"/></g>
<g><path style="opacity:1" fill="#df2828" d="M 1868.5,1540.5 C 1882.16,1538.99 1888.32,1544.99 1887,1558.5C 1883.17,1566.12 1877,1568.96 1868.5,1567C 1856.55,1558.13 1856.55,1549.3 1868.5,1540.5 Z"/></g>
<g><path style="opacity:1" fill="#d5d5d5" d="M 412.5,1577.5 C 456.88,1590.63 499.88,1607.29 541.5,1627.5C 536.68,1662.04 547.68,1690.54 574.5,1713C 607.639,1739.87 641.805,1741.37 677,1717.5C 730.1,1764.5 764.933,1822.67 781.5,1892C 781.167,1892.5 780.833,1893 780.5,1893.5C 631.081,1819.42 508.415,1714.09 412.5,1577.5 Z"/></g>
<g><path style="opacity:1" fill="#d5d5d5" d="M 2008.5,1579.5 C 2011.91,1579.13 2012.41,1580.13 2010,1582.5C 1915.48,1715.2 1795.65,1818.2 1650.5,1891.5C 1653.27,1874.11 1658.1,1857.11 1665,1840.5C 1687.48,1789.34 1719.98,1745.5 1762.5,1709C 1772,1701.5 1781.5,1694 1791,1686.5C 1809.71,1699.79 1830.21,1703.29 1852.5,1697C 1885.83,1685.67 1907.66,1663.17 1918,1629.5C 1918.8,1623.95 1919.64,1618.45 1920.5,1613C 1949.5,1600.72 1978.84,1589.56 2008.5,1579.5 Z"/></g>
<g><path style="opacity:1" fill="#2c1304" d="M 659.5,1589.5 C 680.403,1589.23 688.569,1599.23 684,1619.5C 678.163,1629.23 669.663,1632.73 658.5,1630C 647.411,1625.11 642.911,1616.61 645,1604.5C 648.047,1597.62 652.881,1592.62 659.5,1589.5 Z"/></g>
<g><path style="opacity:1" fill="#2c1404" d="M 1759.5,1589.5 C 1780.33,1589.17 1788.5,1599.17 1784,1619.5C 1775.81,1631.17 1765.31,1633.67 1752.5,1627C 1742.67,1616.89 1742,1606.22 1750.5,1595C 1753.6,1593.13 1756.6,1591.29 1759.5,1589.5 Z"/></g>
<g><path style="opacity:1" fill="#df2828" d="M 660.5,1596.5 C 673.024,1595.53 679.19,1601.2 679,1613.5C 675.387,1622.39 668.887,1625.56 659.5,1623C 650.755,1616.97 649.255,1609.47 655,1600.5C 657.015,1599.3 658.849,1597.97 660.5,1596.5 Z"/></g>
<g><path style="opacity:1" fill="#e02828" d="M 1760.5,1596.5 C 1774.34,1595.83 1780.17,1602.16 1778,1615.5C 1773.97,1623.04 1767.8,1625.54 1759.5,1623C 1750.89,1616.93 1749.39,1609.43 1755,1600.5C 1757.02,1599.3 1758.85,1597.97 1760.5,1596.5 Z"/></g>
<g><path style="opacity:1" fill="#d4d4d4" d="M 1898.5,1622.5 C 1903.1,1650.19 1891.77,1668.69 1864.5,1678C 1847.76,1681.85 1832.26,1679.02 1818,1669.5C 1817.91,1667.89 1818.74,1666.72 1820.5,1666C 1845.76,1650.2 1871.76,1635.7 1898.5,1622.5 Z"/></g>
<g><path style="opacity:1" fill="#d4d4d4" d="M 566.5,1641.5 C 597.586,1656.92 626.586,1675.59 653.5,1697.5C 638.541,1711.21 620.874,1717.04 600.5,1715C 571.738,1705.67 558.904,1685.84 562,1655.5C 562.808,1650.58 564.308,1645.91 566.5,1641.5 Z"/></g>
<g><path style="opacity:1" fill="#ad4409" d="M 1439.5,1658.5 C 1440.82,1666.68 1440.82,1675.01 1439.5,1683.5C 1410.87,1702.2 1380.2,1716.37 1347.5,1726C 1378.41,1703.72 1409.08,1681.22 1439.5,1658.5 Z"/></g>
<g><path style="opacity:1" fill="#ac4409" d="M 989.5,1659.5 C 1019.62,1681.12 1049.62,1702.95 1079.5,1725C 1048,1715.42 1018.33,1701.75 990.5,1684C 989.518,1675.92 989.184,1667.75 989.5,1659.5 Z"/></g>
<g><path style="opacity:1" fill="#2c1404" d="M 762.5,1683.5 C 782.789,1681.62 791.623,1690.62 789,1710.5C 784.108,1721.59 775.608,1726.09 763.5,1724C 750.938,1718.31 746.438,1708.81 750,1695.5C 752.744,1689.92 756.911,1685.92 762.5,1683.5 Z"/></g>
<g><path style="opacity:1" fill="#2c1404" d="M 1653.5,1683.5 C 1666.1,1680.86 1675.27,1685.19 1681,1696.5C 1683.54,1715.96 1675.04,1725.13 1655.5,1724C 1640.74,1716.99 1636.91,1706.15 1644,1691.5C 1646.77,1688.22 1649.94,1685.55 1653.5,1683.5 Z"/></g>
<g><path style="opacity:1" fill="#de2827" d="M 765.5,1689.5 C 777.526,1689.03 783.359,1694.69 783,1706.5C 779.274,1716.19 772.44,1719.36 762.5,1716C 752.409,1705.82 753.409,1696.98 765.5,1689.5 Z"/></g>
<g><path style="opacity:1" fill="#df2828" d="M 1657.5,1689.5 C 1672.76,1690.59 1677.59,1698.26 1672,1712.5C 1665.27,1718.73 1658.27,1719.06 1651,1713.5C 1644.65,1703.08 1646.81,1695.08 1657.5,1689.5 Z"/></g>
<g><path style="opacity:1" fill="#e88d16" d="M 1439.5,1732.5 C 1440.49,1743.32 1440.83,1754.32 1440.5,1765.5C 1440.79,1769.11 1440.46,1772.61 1439.5,1776C 1376.5,1807.34 1311,1832.17 1243,1850.5C 1223.75,1838.68 1204.59,1838.68 1185.5,1850.5C 1117.88,1832.52 1052.88,1807.85 990.5,1776.5C 989.167,1761.83 989.167,1747.17 990.5,1732.5C 1044.46,1762.24 1102.13,1780.41 1163.5,1787C 1176.83,1796.67 1190.17,1806.33 1203.5,1816C 1209.97,1820.21 1216.64,1820.54 1223.5,1817C 1237.34,1807.24 1251.01,1797.24 1264.5,1787C 1326.46,1780.18 1384.8,1762.01 1439.5,1732.5 Z"/></g>
<g><path style="opacity:1" fill="#673e0a" d="M 1439.5,1732.5 C 1439.56,1731.96 1439.89,1731.62 1440.5,1731.5C 1441.82,1742.99 1441.82,1754.33 1440.5,1765.5C 1440.83,1754.32 1440.49,1743.32 1439.5,1732.5 Z"/></g>
<g><path style="opacity:1" fill="#2d1404" d="M 831.5,1803.5 C 844.151,1801.91 852.985,1806.91 858,1818.5C 859.127,1838.04 849.96,1846.54 830.5,1844C 818.213,1837.47 814.379,1827.64 819,1814.5C 822.124,1809.54 826.291,1805.87 831.5,1803.5 Z"/></g>
<g><path style="opacity:1" fill="#2c1404" d="M 1588.5,1803.5 C 1606.98,1803.15 1615.15,1812.15 1613,1830.5C 1606.91,1843.2 1597.07,1847.37 1583.5,1843C 1572.57,1835.53 1569.73,1825.7 1575,1813.5C 1578.42,1808.56 1582.92,1805.22 1588.5,1803.5 Z"/></g>
<g><path style="opacity:1" fill="#df2828" d="M 832.5,1810.5 C 843.171,1809.02 849.505,1813.52 851.5,1824C 849.876,1834.99 843.543,1839.32 832.5,1837C 820.525,1828.27 820.525,1819.44 832.5,1810.5 Z"/></g>
<g><path style="opacity:1" fill="#e02828" d="M 1588.5,1810.5 C 1604.29,1810.43 1609.46,1817.76 1604,1832.5C 1599.51,1837.26 1594.01,1838.76 1587.5,1837C 1580.33,1832.84 1577.83,1826.67 1580,1818.5C 1582.07,1814.92 1584.91,1812.26 1588.5,1810.5 Z"/></g>
<g><path style="opacity:1" fill="#e58b16" d="M 1429.5,1963.5 C 1428.5,1918.67 1428.17,1873.67 1428.5,1828.5C 1431.28,1826.61 1434.28,1824.94 1437.5,1823.5C 1437.83,1826.5 1438.17,1829.5 1438.5,1832.5C 1436.02,1876.21 1433.02,1919.87 1429.5,1963.5 Z"/></g>
<g><path style="opacity:1" fill="#e38b16" d="M 992.5,1824.5 C 994.954,1826.06 997.62,1827.06 1000.5,1827.5C 1000.67,1867.83 1000.5,1908.17 1000,1948.5C 998.617,1927.81 996.95,1907.14 995,1886.5C 993.519,1865.86 992.685,1845.19 992.5,1824.5 Z"/></g>
<g><path style="opacity:1" fill="#834f0c" d="M 1428.5,1828.5 C 1428.17,1873.67 1428.5,1918.67 1429.5,1963.5C 1429.77,1965.43 1429.27,1967.1 1428,1968.5C 1427.17,1921.66 1427.34,1875 1428.5,1828.5 Z"/></g>
<g><path style="opacity:1" fill="#e98e16" d="M 1025.5,1839.5 C 1035.14,1843.49 1044.8,1847.49 1054.5,1851.5C 1055.83,1897.83 1055.83,1944.17 1054.5,1990.5C 1044.82,1987.24 1035.32,1983.57 1026,1979.5C 1025.5,1932.83 1025.33,1886.17 1025.5,1839.5 Z"/></g>
<g><path style="opacity:1" fill="#e98e16" d="M 1401.5,1840.5 C 1402.5,1886.66 1402.83,1933 1402.5,1979.5C 1393.66,1983.23 1384.66,1986.56 1375.5,1989.5C 1373.5,1943.85 1372.84,1897.85 1373.5,1851.5C 1382.67,1847.44 1392,1843.78 1401.5,1840.5 Z"/></g>
<g><path style="opacity:1" fill="#cc7c13" d="M 1401.5,1840.5 C 1401.56,1839.96 1401.89,1839.62 1402.5,1839.5C 1403.83,1886.33 1403.83,1933 1402.5,1979.5C 1402.83,1933 1402.5,1886.66 1401.5,1840.5 Z"/></g>
<g><path style="opacity:1" fill="#a0610f" d="M 1373.5,1851.5 C 1372.84,1897.85 1373.5,1943.85 1375.5,1989.5C 1374.79,1990.4 1373.79,1990.74 1372.5,1990.5C 1372.17,1944 1372.5,1897.66 1373.5,1851.5 Z"/></g>
<g><path style="opacity:1" fill="#3a2205" d="M 1081.5,1861.5 C 1080.5,1907 1080.17,1952.66 1080.5,1998.5C 1079.17,1952.66 1079.17,1906.66 1080.5,1860.5C 1081.11,1860.62 1081.44,1860.96 1081.5,1861.5 Z"/></g>
<g><path style="opacity:1" fill="#e98e16" d="M 1081.5,1861.5 C 1091.01,1865.23 1100.68,1868.56 1110.5,1871.5C 1111.16,1916.85 1110.49,1961.85 1108.5,2006.5C 1098.81,2004.75 1089.47,2002.08 1080.5,1998.5C 1080.17,1952.66 1080.5,1907 1081.5,1861.5 Z"/></g>
<g><path style="opacity:1" fill="#b06b11" d="M 1345.5,1862.5 C 1346.21,1861.6 1347.21,1861.26 1348.5,1861.5C 1348.83,1907.34 1348.5,1953 1347.5,1998.5C 1348.16,1952.82 1347.49,1907.49 1345.5,1862.5 Z"/></g>
<g><path style="opacity:1" fill="#e98e16" d="M 1345.5,1862.5 C 1347.49,1907.49 1348.16,1952.82 1347.5,1998.5C 1338.53,2002.04 1329.2,2004.7 1319.5,2006.5C 1318.5,1961.67 1318.17,1916.67 1318.5,1871.5C 1327.29,1867.9 1336.29,1864.9 1345.5,1862.5 Z"/></g>
<g><path style="opacity:1" fill="#e68c16" d="M 1209.5,1863.5 C 1211.17,1863.5 1212.83,1863.5 1214.5,1863.5C 1214.5,1871.83 1214.5,1880.17 1214.5,1888.5C 1210.09,1888.2 1206.09,1889.37 1202.5,1892C 1193.44,1900.28 1187.61,1910.45 1185,1922.5C 1180.46,1945.07 1183.13,1966.74 1193,1987.5C 1196.93,1993.43 1202.1,1997.93 1208.5,2001C 1210.47,2001.5 1212.47,2001.66 1214.5,2001.5C 1214.5,2009.83 1214.5,2018.17 1214.5,2026.5C 1212.83,2026.5 1211.17,2026.5 1209.5,2026.5C 1203.05,2025.27 1197.38,2022.44 1192.5,2018C 1175.03,1996.92 1166.69,1972.58 1167.5,1945C 1166.31,1917.25 1174.64,1892.91 1192.5,1872C 1197.38,1867.56 1203.05,1864.73 1209.5,1863.5 Z"/></g>
<g><path style="opacity:1" fill="#9f610f" d="M 1209.5,1863.5 C 1222.26,1862.45 1232.76,1867.12 1241,1877.5C 1258.9,1904.23 1265.24,1933.56 1260,1965.5C 1257.25,1982.66 1250.92,1998.33 1241,2012.5C 1232.76,2022.88 1222.26,2027.55 1209.5,2026.5C 1211.17,2026.5 1212.83,2026.5 1214.5,2026.5C 1214.5,2018.17 1214.5,2009.83 1214.5,2001.5C 1224.46,2000.6 1231.63,1995.6 1236,1986.5C 1246.2,1964.24 1248.2,1941.24 1242,1917.5C 1239.33,1908 1234.5,1899.83 1227.5,1893C 1223.56,1890.41 1219.23,1888.91 1214.5,1888.5C 1214.5,1880.17 1214.5,1871.83 1214.5,1863.5C 1212.83,1863.5 1211.17,1863.5 1209.5,1863.5 Z"/></g>
<g><path style="opacity:1" fill="#4a2c07" d="M 1110.5,1871.5 C 1111.5,1916.66 1111.83,1962 1111.5,2007.5C 1110.21,2007.74 1109.21,2007.4 1108.5,2006.5C 1110.49,1961.85 1111.16,1916.85 1110.5,1871.5 Z"/></g>
<g><path style="opacity:1" fill="#bc7312" d="M 1318.5,1871.5 C 1318.17,1916.67 1318.5,1961.67 1319.5,2006.5C 1319.44,2007.04 1319.11,2007.38 1318.5,2007.5C 1317.17,1962 1317.17,1916.67 1318.5,1871.5 Z"/></g>
<g><path style="opacity:1" fill="#e68c16" d="M 1135.5,1879.5 C 1142.96,1881.86 1150.3,1884.53 1157.5,1887.5C 1147.56,1911.53 1144.06,1936.53 1147,1962.5C 1149.49,1982.8 1155.66,2001.8 1165.5,2019.5C 1155.44,2018.53 1145.61,2016.53 1136,2013.5C 1135.5,1968.83 1135.33,1924.17 1135.5,1879.5 Z"/></g>
<g><path style="opacity:1" fill="#e68c16" d="M 1291.5,1880.5 C 1292.5,1924.66 1292.83,1969 1292.5,2013.5C 1282.69,2016.73 1272.69,2018.4 1262.5,2018.5C 1280.32,1987.01 1286.15,1953.34 1280,1917.5C 1278.12,1906.91 1274.95,1896.74 1270.5,1887C 1277.25,1884.14 1284.25,1881.97 1291.5,1880.5 Z"/></g>
<g><path style="opacity:1" fill="#834f0c" d="M 1291.5,1880.5 C 1291.56,1879.96 1291.89,1879.62 1292.5,1879.5C 1293.83,1924.33 1293.83,1969 1292.5,2013.5C 1292.83,1969 1292.5,1924.66 1291.5,1880.5 Z"/></g>
<g><path style="opacity:1" fill="#2d1404" d="M 1214.5,1888.5 C 1214.18,1891.21 1214.85,1893.54 1216.5,1895.5C 1215.83,1895.5 1215.17,1895.5 1214.5,1895.5C 1212.01,1895.3 1209.68,1895.8 1207.5,1897C 1199.41,1904.1 1194.25,1912.93 1192,1923.5C 1187.45,1945.11 1190.12,1965.78 1200,1985.5C 1202.5,1988 1205,1990.5 1207.5,1993C 1209.68,1994.2 1212.01,1994.7 1214.5,1994.5C 1215.17,1994.5 1215.83,1994.5 1216.5,1994.5C 1214.85,1996.46 1214.18,1998.79 1214.5,2001.5C 1212.47,2001.66 1210.47,2001.5 1208.5,2001C 1202.1,1997.93 1196.93,1993.43 1193,1987.5C 1183.13,1966.74 1180.46,1945.07 1185,1922.5C 1187.61,1910.45 1193.44,1900.28 1202.5,1892C 1206.09,1889.37 1210.09,1888.2 1214.5,1888.5 Z"/></g>
<g><path style="opacity:1" fill="#1e0e02" d="M 1214.5,1888.5 C 1219.23,1888.91 1223.56,1890.41 1227.5,1893C 1234.5,1899.83 1239.33,1908 1242,1917.5C 1248.2,1941.24 1246.2,1964.24 1236,1986.5C 1231.63,1995.6 1224.46,2000.6 1214.5,2001.5C 1214.18,1998.79 1214.85,1996.46 1216.5,1994.5C 1224.89,1991.27 1230.39,1985.27 1233,1976.5C 1239.92,1956.27 1240.25,1935.94 1234,1915.5C 1231.53,1908.72 1227.7,1902.89 1222.5,1898C 1220.59,1896.88 1218.59,1896.04 1216.5,1895.5C 1214.85,1893.54 1214.18,1891.21 1214.5,1888.5 Z"/></g>
<g><path style="opacity:1" fill="#e12828" d="M 1214.5,1895.5 C 1214.5,1928.5 1214.5,1961.5 1214.5,1994.5C 1212.01,1994.7 1209.68,1994.2 1207.5,1993C 1205,1990.5 1202.5,1988 1200,1985.5C 1190.12,1965.78 1187.45,1945.11 1192,1923.5C 1194.25,1912.93 1199.41,1904.1 1207.5,1897C 1209.68,1895.8 1212.01,1895.3 1214.5,1895.5 Z"/></g>
<g><path style="opacity:1" fill="#9b1b1b" d="M 1214.5,1895.5 C 1215.17,1895.5 1215.83,1895.5 1216.5,1895.5C 1218.59,1896.04 1220.59,1896.88 1222.5,1898C 1227.7,1902.89 1231.53,1908.72 1234,1915.5C 1240.25,1935.94 1239.92,1956.27 1233,1976.5C 1230.39,1985.27 1224.89,1991.27 1216.5,1994.5C 1215.83,1994.5 1215.17,1994.5 1214.5,1994.5C 1214.5,1961.5 1214.5,1928.5 1214.5,1895.5 Z"/></g>
<g><path style="opacity:1" fill="#2d1404" d="M 907.5,1941.5 C 919.748,1940.21 928.248,1945.21 933,1956.5C 934.494,1974.34 926.327,1983.17 908.5,1983C 893.396,1977.11 888.896,1966.61 895,1951.5C 898.191,1946.84 902.358,1943.5 907.5,1941.5 Z"/></g>
<g><path style="opacity:1" fill="#2c1404" d="M 1512.5,1941.5 C 1530.33,1941.16 1538.83,1949.83 1538,1967.5C 1533.77,1978.87 1525.6,1984.03 1513.5,1983C 1500.2,1978.59 1495.04,1969.42 1498,1955.5C 1500.77,1948.56 1505.61,1943.89 1512.5,1941.5 Z"/></g>
<g><path style="opacity:1" fill="#df2828" d="M 908.5,1948.5 C 921.123,1947.37 926.957,1953.03 926,1965.5C 922.134,1975.57 915.301,1978.4 905.5,1974C 899.826,1969.51 897.993,1963.68 900,1956.5C 902.074,1952.92 904.907,1950.26 908.5,1948.5 Z"/></g>
<g><path style="opacity:1" fill="#de2827" d="M 1513.5,1948.5 C 1528.83,1948.97 1534,1956.3 1529,1970.5C 1521.96,1978.01 1514.62,1978.34 1507,1971.5C 1501.01,1961.49 1503.18,1953.82 1513.5,1948.5 Z"/></g>
<g><path style="opacity:1" fill="#7a4a0d" d="M 1465.5,2027.5 C 1465.21,2029.74 1465.54,2031.74 1466.5,2033.5C 1466.44,2034.04 1466.11,2034.38 1465.5,2034.5C 1464.2,2032.03 1464.2,2029.69 1465.5,2027.5 Z"/></g>
<g><path style="opacity:0.969" fill="#010000" d="M 2431.5,2325.5 C 2431.5,2341.17 2431.5,2356.83 2431.5,2372.5C 2422.22,2460.21 2380.22,2527.04 2305.5,2573C 2229.46,2612.82 2153.79,2612.15 2078.5,2571C 2004.36,2523.73 1963.53,2455.9 1956,2367.5C 1951.62,2274.13 1985.78,2198.63 2058.5,2141C 2123.89,2095.55 2194.56,2085.21 2270.5,2110C 2347.86,2141.02 2398.36,2196.52 2422,2276.5C 2426.42,2292.74 2429.58,2309.07 2431.5,2325.5 Z M 2175.5,2135.5 C 2260.94,2133.12 2324.77,2168.79 2367,2242.5C 2398.94,2306.15 2401.94,2371.15 2376,2437.5C 2350.41,2495.76 2307.58,2535.26 2247.5,2556C 2163.78,2575.76 2094.61,2552.59 2040,2486.5C 1994.89,2424.17 1982.89,2355.83 2004,2281.5C 2026.14,2214.36 2070.31,2168.53 2136.5,2144C 2149.4,2140.08 2162.4,2137.25 2175.5,2135.5 Z"/></g>
<g><path style="opacity:0.969" fill="#fa861c" d="M 204.5,2651.5 C 195.5,2651.5 186.5,2651.5 177.5,2651.5C 148.301,2644.49 128.135,2626.82 117,2598.5C 106.801,2571.12 101.801,2542.78 102,2513.5C 51.1097,2501.72 18.443,2470.72 4,2420.5C 2.41113,2413.38 0.911125,2406.38 -0.5,2399.5C -0.5,2387.5 -0.5,2375.5 -0.5,2363.5C 6.22184,2310.29 33.8885,2272.45 82.5,2250C 107.768,2240.98 133.768,2237.98 160.5,2241C 172.519,2242.56 184.519,2243.89 196.5,2245C 229.14,2197.84 267.14,2155.17 310.5,2117C 317.253,2111.31 325.086,2108.81 334,2109.5C 339.181,2109.85 344.347,2110.35 349.5,2111C 355.594,2111.45 359.594,2114.45 361.5,2120C 357.408,2127.69 354.575,2135.86 353,2144.5C 352.333,2273.83 352.333,2403.17 353,2532.5C 354.575,2541.14 357.408,2549.31 361.5,2557C 361.066,2559.32 360.066,2561.32 358.5,2563C 354.113,2565.26 349.446,2566.6 344.5,2567C 333.383,2568.04 322.383,2567.37 311.5,2565C 307.601,2563.94 305.268,2561.44 304.5,2557.5C 308.629,2549.61 311.463,2541.28 313,2532.5C 313.667,2491.17 313.667,2449.83 313,2408.5C 299.473,2361.97 271.973,2326.14 230.5,2301C 225.833,2298.67 221.167,2296.33 216.5,2294C 214.833,2293.33 213.167,2293.33 211.5,2294C 176.482,2349.38 154.315,2409.55 145,2474.5C 184.387,2471.62 212.053,2451.95 228,2415.5C 231.516,2405.09 235.183,2394.76 239,2384.5C 249.642,2374.87 259.975,2375.2 270,2385.5C 272.017,2389.07 273.184,2392.9 273.5,2397C 258.202,2467.82 214.536,2507.15 142.5,2515C 139.955,2542.94 145.122,2569.44 158,2594.5C 172.211,2614.26 190.377,2618.76 212.5,2608C 219.391,2602.06 223.557,2594.56 225,2585.5C 225.868,2577.46 226.868,2569.46 228,2561.5C 235.134,2550.46 244.634,2547.96 256.5,2554C 263.29,2559.36 265.957,2566.36 264.5,2575C 264.744,2598.95 256.411,2619.29 239.5,2636C 229.017,2643.99 217.35,2649.16 204.5,2651.5 Z M 312.5,2167.5 C 313.831,2218.67 313.831,2270 312.5,2321.5C 290.764,2295.26 264.764,2274.42 234.5,2259C 257.382,2225.94 283.382,2195.44 312.5,2167.5 Z M 125.5,2278.5 C 140.911,2278.02 156.244,2278.86 171.5,2281C 172.022,2281.56 172.355,2282.23 172.5,2283C 137.832,2341.33 115.666,2404.16 106,2471.5C 105.481,2472.52 104.647,2473.18 103.5,2473.5C 68.7448,2463.58 47.5781,2440.91 40,2405.5C 32.8107,2369.26 40.8107,2336.92 64,2308.5C 81.0626,2291.39 101.563,2281.39 125.5,2278.5 Z"/></g>
<g><path style="opacity:0.972" fill="#fa861c" d="M 401.5,2222.5 C 415.599,2222.8 427.433,2228.13 437,2238.5C 482.301,2292.3 528.135,2345.63 574.5,2398.5C 575.667,2352.5 575.833,2306.5 575,2260.5C 574.029,2251.61 571.362,2243.28 567,2235.5C 565.709,2230.44 567.542,2226.94 572.5,2225C 587.167,2221.67 601.833,2221.67 616.5,2225C 621.458,2226.94 623.291,2230.44 622,2235.5C 617.478,2243.59 614.811,2252.25 614,2261.5C 613.333,2334.17 613.333,2406.83 614,2479.5C 614.971,2488.39 617.638,2496.72 622,2504.5C 622.847,2507.59 622.347,2510.42 620.5,2513C 612.281,2516.87 603.615,2518.37 594.5,2517.5C 585.1,2518.52 576.267,2516.86 568,2512.5C 566.578,2509.97 566.245,2507.3 567,2504.5C 575.634,2488.76 577.3,2472.43 572,2455.5C 526.324,2402.33 480.491,2349.33 434.5,2296.5C 433.333,2358.5 433.167,2420.5 434,2482.5C 435.539,2491.28 438.373,2499.62 442.5,2507.5C 442.06,2510.21 440.726,2512.38 438.5,2514C 435.043,2515.74 431.377,2516.74 427.5,2517C 418.5,2517.67 409.5,2517.67 400.5,2517C 385.452,2515.38 382.285,2508.21 391,2495.5C 392.313,2491.58 393.313,2487.58 394,2483.5C 394.365,2424.67 394.865,2365.83 395.5,2307C 395.584,2290.14 395.084,2273.31 394,2256.5C 391.99,2248.3 389.49,2240.3 386.5,2232.5C 386.326,2230.31 386.993,2228.47 388.5,2227C 392.715,2224.76 397.048,2223.26 401.5,2222.5 Z"/></g>
<g><path style="opacity:0.968" fill="#fa861c" d="M 1319.5,2222.5 C 1335.9,2221.15 1351.9,2222.99 1367.5,2228C 1379.41,2233.6 1391.08,2239.6 1402.5,2246C 1404.98,2249.45 1406.48,2253.29 1407,2257.5C 1407.67,2267.83 1407.67,2278.17 1407,2288.5C 1406.63,2297.55 1402.13,2301.39 1393.5,2300C 1387.97,2287.14 1378.97,2277.47 1366.5,2271C 1346.4,2258.15 1325.73,2257.15 1304.5,2268C 1289.64,2278.56 1284.81,2292.73 1290,2310.5C 1292.11,2316.93 1295.44,2322.59 1300,2327.5C 1305.26,2332.77 1311.1,2337.27 1317.5,2341C 1333.89,2349.86 1350.55,2358.19 1367.5,2366C 1386.14,2375.65 1401.31,2389.15 1413,2406.5C 1426.63,2434.88 1425.29,2462.55 1409,2489.5C 1393.26,2508.29 1373.09,2519.12 1348.5,2522C 1311.76,2526.64 1280.59,2515.81 1255,2489.5C 1239.36,2469.58 1232.36,2446.91 1234,2421.5C 1239.74,2407.28 1249.57,2403.45 1263.5,2410C 1266.73,2412.57 1269.23,2415.73 1271,2419.5C 1270.19,2456.01 1287.69,2477.51 1323.5,2484C 1340.96,2486.31 1356.96,2482.64 1371.5,2473C 1383.78,2460.44 1386.95,2445.94 1381,2429.5C 1375.55,2419.05 1367.72,2410.88 1357.5,2405C 1339.32,2395.41 1320.99,2386.08 1302.5,2377C 1285.53,2368.03 1271.69,2355.53 1261,2339.5C 1245.61,2310.72 1246.28,2282.39 1263,2254.5C 1277.78,2236.69 1296.61,2226.03 1319.5,2222.5 Z"/></g>
<g><path style="opacity:0.976" fill="#fa861c" d="M 1177.5,2223.5 C 1188.14,2223.16 1198.47,2224.66 1208.5,2228C 1210.83,2229.33 1211.83,2231.33 1211.5,2234C 1210.1,2238.97 1208.27,2243.8 1206,2248.5C 1204.27,2254.04 1203.27,2259.7 1203,2265.5C 1202.33,2336.83 1202.33,2408.17 1203,2479.5C 1203.52,2484.59 1204.52,2489.59 1206,2494.5C 1208.27,2499.2 1210.1,2504.03 1211.5,2509C 1211.01,2513.16 1208.68,2515.83 1204.5,2517C 1190.51,2520.33 1176.51,2520.33 1162.5,2517C 1158.37,2515.87 1156.03,2513.2 1155.5,2509C 1159.91,2500.34 1162.74,2491.18 1164,2481.5C 1164.67,2407.83 1164.67,2334.17 1164,2260.5C 1162.45,2251.24 1159.61,2242.4 1155.5,2234C 1155.7,2230.6 1157.36,2228.27 1160.5,2227C 1166.2,2225.31 1171.87,2224.14 1177.5,2223.5 Z"/></g>
<g><path style="opacity:0.975" fill="#fa861c" d="M 906.5,2224.5 C 950.867,2224.03 995.2,2224.53 1039.5,2226C 1083.42,2238.61 1103.92,2267.77 1101,2313.5C 1098.97,2327.59 1093.47,2340.09 1084.5,2351C 1115.69,2368.19 1132.02,2394.69 1133.5,2430.5C 1130.27,2475.56 1106.94,2504.4 1063.5,2517C 1058.86,2517.83 1054.19,2518.5 1049.5,2519C 1003.83,2519.67 958.167,2519.67 912.5,2519C 905.746,2519.03 899.913,2516.86 895,2512.5C 894.333,2510.17 894.333,2507.83 895,2505.5C 899.682,2497.11 902.349,2488.11 903,2478.5C 903.667,2406.83 903.667,2335.17 903,2263.5C 902.476,2258.41 901.476,2253.41 900,2248.5C 897.732,2243.8 895.898,2238.97 894.5,2234C 894.167,2231.33 895.167,2229.33 897.5,2228C 900.571,2226.7 903.571,2225.54 906.5,2224.5 Z M 943.5,2262.5 C 972.169,2262.33 1000.84,2262.5 1029.5,2263C 1050.48,2267.64 1061.81,2280.64 1063.5,2302C 1061.66,2321.17 1051.66,2333.83 1033.5,2340C 1003.54,2341.63 973.54,2341.96 943.5,2341C 943,2340.5 942.5,2340 942,2339.5C 941.333,2314.5 941.333,2289.5 942,2264.5C 942.717,2263.96 943.217,2263.29 943.5,2262.5 Z M 943.5,2379.5 C 978.835,2379.33 1014.17,2379.5 1049.5,2380C 1077.52,2385.02 1092.52,2401.69 1094.5,2430C 1092.89,2456.96 1078.89,2473.62 1052.5,2480C 1015.83,2480.67 979.167,2480.67 942.5,2480C 941.338,2447.24 941.171,2414.4 942,2381.5C 942.717,2380.96 943.217,2380.29 943.5,2379.5 Z"/></g>
<g><path style="opacity:0.969" fill="#010000" d="M 1458.5,2224.5 C 1495.17,2224.33 1531.83,2224.5 1568.5,2225C 1627.31,2233.31 1668.14,2264.81 1691,2319.5C 1711.61,2382.89 1698.11,2437.72 1650.5,2484C 1626.36,2504.73 1598.36,2516.73 1566.5,2520C 1531.17,2520.67 1495.83,2520.67 1460.5,2520C 1445.39,2519.63 1441.56,2513.13 1449,2500.5C 1450.8,2495.63 1452.14,2490.63 1453,2485.5C 1453.67,2410.17 1453.67,2334.83 1453,2259.5C 1451.37,2250.6 1448.53,2242.1 1444.5,2234C 1445.08,2231.5 1446.42,2229.5 1448.5,2228C 1451.85,2226.51 1455.18,2225.35 1458.5,2224.5 Z M 1496.5,2262.5 C 1518.5,2262.33 1540.5,2262.5 1562.5,2263C 1605.52,2268.71 1636.02,2291.21 1654,2330.5C 1671.19,2380.58 1660.02,2423.08 1620.5,2458C 1602.27,2472.11 1581.61,2480.11 1558.5,2482C 1538.17,2482.67 1517.83,2482.67 1497.5,2482C 1496,2481.42 1494.67,2480.58 1493.5,2479.5C 1492.34,2408.54 1492.17,2337.54 1493,2266.5C 1493.69,2264.65 1494.86,2263.32 1496.5,2262.5 Z"/></g>
<g><path style="opacity:0.975" fill="#fa861c" d="M 666.5,2225.5 C 675.592,2225.41 684.592,2226.24 693.5,2228C 698.012,2228.91 700.679,2231.57 701.5,2236C 697.473,2244.08 694.639,2252.58 693,2261.5C 692.333,2319.83 692.333,2378.17 693,2436.5C 698.181,2460.68 712.681,2476.18 736.5,2483C 752.567,2485.25 768.567,2484.91 784.5,2482C 805.341,2474.49 818.508,2459.99 824,2438.5C 825.634,2381.52 825.967,2324.52 825,2267.5C 824.361,2257.58 821.695,2248.25 817,2239.5C 815.29,2233.53 817.457,2229.7 823.5,2228C 835.769,2225.21 848.103,2224.88 860.5,2227C 864.451,2227.54 867.951,2229.04 871,2231.5C 872.373,2233.7 872.706,2236.03 872,2238.5C 867.734,2245.97 865.067,2253.97 864,2262.5C 863.969,2323.19 863.303,2383.86 862,2444.5C 851.733,2488.1 824.567,2513.93 780.5,2522C 763.798,2522.89 747.131,2522.56 730.5,2521C 688.236,2510.74 663.069,2484.24 655,2441.5C 654.667,2383.83 654.333,2326.17 654,2268.5C 653.625,2263.79 652.958,2259.12 652,2254.5C 649.954,2248.25 647.787,2242.08 645.5,2236C 645.167,2233.33 646.167,2231.33 648.5,2230C 654.378,2227.53 660.378,2226.03 666.5,2225.5 Z"/></g>
<g><path style="opacity:0.97" fill="#010000" d="M 1823.5,2227.5 C 1832.97,2227.15 1839.8,2231.15 1844,2239.5C 1875.67,2317.83 1907.33,2396.17 1939,2474.5C 1944.36,2487.89 1953.02,2498.56 1965,2506.5C 1965.25,2505.38 1965.75,2504.38 1966.5,2503.5C 1968.59,2506.67 1970.42,2510.01 1972,2513.5C 1973.45,2518.77 1971.62,2522.27 1966.5,2524C 1958.65,2526 1950.65,2526.83 1942.5,2526.5C 1937.17,2526.33 1931.83,2526.17 1926.5,2526C 1919.43,2523.93 1914.59,2519.43 1912,2512.5C 1903,2489.83 1894,2467.17 1885,2444.5C 1881.68,2442.28 1878.02,2441.28 1874,2441.5C 1866.41,2442.11 1858.91,2443.27 1851.5,2445C 1828.28,2452.01 1804.62,2456.51 1780.5,2458.5C 1774.72,2458.6 1769.06,2457.93 1763.5,2456.5C 1762.52,2456.98 1761.69,2457.64 1761,2458.5C 1753.33,2477.17 1745.67,2495.83 1738,2514.5C 1733.54,2524.82 1725.7,2528.98 1714.5,2527C 1703.12,2522.75 1698.62,2514.58 1701,2502.5C 1736.67,2414.5 1772.33,2326.5 1808,2238.5C 1811.45,2232.21 1816.62,2228.54 1823.5,2227.5 Z M 1825.5,2299.5 C 1840.07,2333.86 1854.07,2368.53 1867.5,2403.5C 1859.43,2404.12 1851.43,2405.29 1843.5,2407C 1822.79,2412.93 1801.79,2417.43 1780.5,2420.5C 1777.92,2420.25 1777.09,2418.92 1778,2416.5C 1793.94,2377.52 1809.77,2338.52 1825.5,2299.5 Z"/></g>
</svg>
